solid Kabelkanal
facet normal -6.684256003855722e-17 0.9999999999999996 2.8217697660269066e-08
  outer loop
    vertex 12.800000033432507 80.20000015087268 2.2000184914735965
    vertex 14.000000026326054 80.20000012133609 3.7000184909899354
    vertex 14.000000033432505 80.20000016366264 2.200018490989916
  endloop
endfacet
facet normal -6.684256003855722e-17 0.9999999999999996 2.8217697660269066e-08
  outer loop
    vertex 14.000000026326054 80.20000012133609 3.7000184909899354
    vertex 12.800000033432507 80.20000015087268 2.2000184914735965
    vertex 12.800000026326055 80.20000010854613 3.7000184819983484
  endloop
endfacet
facet normal 0.9999999999999261 -1.1243356806304712e-07 -3.676509228383983e-07
  outer loop
    vertex 13.999998524817483 44.999957583778844 2.200020199724016
    vertex 14.00000001354926 21.00000171838349 9.200018620562444
    vertex 13.999991328577684 21.00000160885262 2.2000213756494524
  endloop
endfacet
facet normal 0.9999999999999261 -1.1243356806304712e-07 -3.676509228383983e-07
  outer loop
    vertex 14.00000001354926 21.00000171838349 9.200018620562444
    vertex 13.999998524817483 44.999957583778844 2.200020199724016
    vertex 14.000000014051032 44.99995765288183 9.200018588075393
  endloop
endfacet
facet normal 0.99999999999946 1.039196550556841e-06 1.376551366196867e-25
  outer loop
    vertex 13.20000000733604 0.7999991686427583 1.8620562461535427e-05
    vertex 13.19999306802722 7.800000887047407 9.200018620562444
    vertex 13.200000013549712 0.7999991659365042 9.200018620562444
  endloop
endfacet
facet normal 0.99999999999946 1.039196550556841e-06 1.376551366196867e-25
  outer loop
    vertex 13.19999306802722 7.800000887047407 9.200018620562444
    vertex 13.20000000733604 0.7999991686427583 1.8620562461535427e-05
    vertex 13.199993061813549 7.800000889753667 2.137564990754015e-05
  endloop
endfacet
facet normal 1.0 -7.411572731253042e-10 -5.13281164569963e-10
  outer loop
    vertex 14.000000033432505 80.20000016366264 2.200018490989916
    vertex 14.000000026326054 80.20000012133609 3.7000184909899354
    vertex 13.999999956174266 60.99995785967676 2.2000202322115183
  endloop
endfacet
facet normal 1.0 -7.411572731253042e-10 -5.13281164569963e-10
  outer loop
    vertex 14.000000026326054 81.20000012133609 3.700018519207648
    vertex 14.00000000595421 81.2 8.000018519207618
    vertex 14.000000026326054 80.20000012133609 3.7000184909899354
  endloop
endfacet
facet normal 1.0 -7.411572731253042e-10 -5.13281164569963e-10
  outer loop
    vertex 13.999999998618643 88.4 1.8400408309915406e-05
    vertex 13.999999998618643 87.2 8.000018400408296
    vertex 13.999999998618643 87.2 1.8400408309915406e-05
  endloop
endfacet
facet normal 1.0 -7.411572731253042e-10 -5.13281164569963e-10
  outer loop
    vertex 13.999999998618643 87.2 8.000018400408296
    vertex 13.999999998618643 88.4 1.8400408309915406e-05
    vertex 14.000000004832314 88.39999999729375 9.200018400408293
  endloop
endfacet
facet normal 1.0 -7.411572731253042e-10 -5.13281164569963e-10
  outer loop
    vertex 14.00000001354926 60.99995765287999 9.200018620562444
    vertex 14.00000000595421 81.2 8.000018519207618
    vertex 14.000000004832314 88.39999999729375 9.200018400408293
  endloop
endfacet
facet normal 1.0 -7.411572731253042e-10 -5.13281164569963e-10
  outer loop
    vertex 14.00000000595421 81.2 8.000018519207618
    vertex 14.00000001354926 60.99995765287999 9.200018620562444
    vertex 13.999999956174266 60.99995785967676 2.2000202322115183
  endloop
endfacet
facet normal 1.0 -7.411572731253042e-10 -5.13281164569963e-10
  outer loop
    vertex 14.00000000595421 81.2 8.000018519207618
    vertex 13.999999956174266 60.99995785967676 2.2000202322115183
    vertex 14.000000026326054 80.20000012133609 3.7000184909899354
  endloop
endfacet
facet normal 1.0 -7.411572731253042e-10 -5.13281164569963e-10
  outer loop
    vertex 14.000000004832314 88.39999999729375 9.200018400408293
    vertex 14.00000000595421 81.2 8.000018519207618
    vertex 13.999999998618643 87.2 8.000018400408296
  endloop
endfacet
facet normal -0.9999999999938807 -1.0490988972977479e-22 3.4984315929608806e-06
  outer loop
    vertex 42.0000323941027 19.799975478833964 8.000029584929083
    vertex 42.00000397434667 8.999989389043098 3.1698477959096746e-05
    vertex 42.000031961790604 8.99998295836205 8.000029181655197
  endloop
endfacet
facet normal -0.9999999999938807 -1.0490988972977479e-22 3.4984315929608806e-06
  outer loop
    vertex 42.00000397434667 8.999989389043098 3.1698477959096746e-05
    vertex 42.0000323941027 19.799975478833964 8.000029584929083
    vertex 42.00000440665876 19.79998190951501 3.210175184555908e-05
  endloop
endfacet
facet normal 6.383546541040743e-07 5.1016876991446294e-08 -0.999999999999795
  outer loop
    vertex 13.999991328577684 21.00000160885262 2.2000213756494524
    vertex 23.999881587751457 19.799980480177027 2.2000305543172076
    vertex 12.800010076999639 19.80000315043062 2.2000165327211327
  endloop
endfacet
facet normal 6.383546541040743e-07 5.1016876991446294e-08 -0.999999999999795
  outer loop
    vertex 23.999881587751457 19.799980480177027 2.2000305543172076
    vertex 13.999991328577684 21.00000160885262 2.2000213756494524
    vertex 23.999880727050083 20.999994976022418 2.2000306569585732
  endloop
endfacet
facet normal 6.383546541040743e-07 5.1016876991446294e-08 -0.999999999999795
  outer loop
    vertex 13.999998524817483 44.999957583778844 2.200020199724016
    vertex 12.800010076999639 19.80000315043062 2.2000165327211327
    vertex 12.79999818930604 44.999957710208655 2.2000207420136317
  endloop
endfacet
facet normal 6.383546541040743e-07 5.1016876991446294e-08 -0.999999999999795
  outer loop
    vertex 12.800010076999639 19.80000315043062 2.2000165327211327
    vertex 13.999998524817483 44.999957583778844 2.200020199724016
    vertex 13.999991328577684 21.00000160885262 2.2000213756494524
  endloop
endfacet
facet normal -1.2490139145171353e-08 -9.198947848618621e-08 -0.9999999999999958
  outer loop
    vertex 12.800000033432507 80.20000015087268 2.2000184914735965
    vertex 13.999999956174266 60.99995785967676 2.2000202322115183
    vertex 12.799999686774253 60.999957846886815 2.2000202826557556
  endloop
endfacet
facet normal -1.2490139145171353e-08 -9.198947848618621e-08 -0.9999999999999958
  outer loop
    vertex 13.999999956174266 60.99995785967676 2.2000202322115183
    vertex 12.800000033432507 80.20000015087268 2.2000184914735965
    vertex 14.000000033432505 80.20000016366264 2.200018490989916
  endloop
endfacet
facet normal 0.0 -1.0 0.0
  outer loop
    vertex 13.999999998618643 87.2 8.000018400408296
    vertex 1.9999999986186638 87.2 1.8400408309915406e-05
    vertex 13.999999998618643 87.2 1.8400408309915406e-05
  endloop
endfacet
facet normal 0.0 -1.0 0.0
  outer loop
    vertex 1.9999999986186638 87.2 1.8400408309915406e-05
    vertex 13.999999998618643 87.2 8.000018400408296
    vertex 1.9999999986186638 87.2 8.000018400408296
  endloop
endfacet
facet normal -5.403901159734476e-07 -0.9999999999997271 -5.04092376440969e-07
  outer loop
    vertex 42.00000440665876 19.79998190951501 3.210175184555908e-05
    vertex 39.999882563652626 19.799978957606918 8.000028811369008
    vertex 39.99988256365416 19.799980592416695 3.1060232644009035e-05
  endloop
endfacet
facet normal -5.403901159734476e-07 -0.9999999999997271 -5.04092376440969e-07
  outer loop
    vertex 39.999882563652626 19.799978957606918 8.000028811369008
    vertex 42.00000440665876 19.79998190951501 3.210175184555908e-05
    vertex 42.0000323941027 19.799975478833964 8.000029584929083
  endloop
endfacet
facet normal -6.684254837014628e-17 0.9999999999999996 2.8217691594080834e-08
  outer loop
    vertex 12.800000005954212 81.19999998721006 8.000018519691299
    vertex 14.000000026326054 81.20000012133609 3.700018519207648
    vertex 12.800000026326055 81.20000010854613 3.700018510216061
  endloop
endfacet
facet normal -6.684254837014628e-17 0.9999999999999996 2.8217691594080834e-08
  outer loop
    vertex 14.000000026326054 81.20000012133609 3.700018519207648
    vertex 12.800000005954212 81.19999998721006 8.000018519691299
    vertex 14.00000000595421 81.2 8.000018519207618
  endloop
endfacet
facet normal -7.767081523812919e-09 3.3828231536770543e-09 1.0
  outer loop
    vertex 0.800000004832293 88.39999999737192 9.200018400408293
    vertex 8.999996827963484 60.99995765287999 9.200018678431315
    vertex 14.000000004832314 88.39999999729375 9.200018400408293
  endloop
endfacet
facet normal -7.767081523812919e-09 3.3828231536770543e-09 1.0
  outer loop
    vertex 8.999996827963484 60.99995765287999 9.200018678431315
    vertex 0.800000004832293 88.39999999737192 9.200018400408293
    vertex 0.8000000135492381 0.7999999973719252 9.200018620562444
  endloop
endfacet
facet normal -7.767081523812919e-09 3.3828231536770543e-09 1.0
  outer loop
    vertex 14.000000004832314 88.39999999729375 9.200018400408293
    vertex 8.999996827963484 60.99995765287999 9.200018678431315
    vertex 14.00000001354926 60.99995765287999 9.200018620562444
  endloop
endfacet
facet normal -7.767081523812919e-09 3.3828231536770543e-09 1.0
  outer loop
    vertex 0.8000000135492381 0.7999999973719252 9.200018620562444
    vertex 8.999996828465257 44.99995765288182 9.200018588072009
    vertex 8.999996827963484 60.99995765287999 9.200018678431315
  endloop
endfacet
facet normal -7.767081523812919e-09 3.3828231536770543e-09 1.0
  outer loop
    vertex 8.999996828465257 44.99995765288182 9.200018588072009
    vertex 0.8000000135492381 0.7999999973719252 9.200018620562444
    vertex 13.200000013549712 0.7999991659365042 9.200018620562444
  endloop
endfacet
facet normal -7.767081523812919e-09 3.3828231536770543e-09 1.0
  outer loop
    vertex 8.999996828465257 44.99995765288182 9.200018588072009
    vertex 13.200000013549712 0.7999991659365042 9.200018620562444
    vertex 13.19999306802722 7.800000887047407 9.200018620562444
  endloop
endfacet
facet normal -7.767081523812919e-09 3.3828231536770543e-09 1.0
  outer loop
    vertex 13.19999306802722 7.800000887047407 9.200018620562444
    vertex 23.999881446209713 15.99998058970849 9.200019506121437
    vertex 14.00000001354926 21.00000171838349 9.200018620562444
  endloop
endfacet
facet normal -7.767081523812919e-09 3.3828231536770543e-09 1.0
  outer loop
    vertex 23.999881446209713 15.99998058970849 9.200019506121437
    vertex 13.19999306802722 7.800000887047407 9.200018620562444
    vertex 43.19999306802433 7.799989782032077 9.200018290089355
  endloop
endfacet
facet normal -7.767081523812919e-09 3.3828231536770543e-09 1.0
  outer loop
    vertex 23.999881446209713 15.99998058970849 9.200019506121437
    vertex 43.19999306802433 7.799989782032077 9.200018290089355
    vertex 39.99988144612143 15.999980589710876 9.200019506121167
  endloop
endfacet
facet normal -7.767081523812919e-09 3.3828231536770543e-09 1.0
  outer loop
    vertex 39.99988144612143 15.999980589710876 9.200019506121167
    vertex 43.19999306802433 7.799989782032077 9.200018290089355
    vertex 39.99988213755574 20.9999950855557 9.20001981964698
  endloop
endfacet
facet normal -7.767081523812919e-09 3.3828231536770543e-09 1.0
  outer loop
    vertex 39.99988213755574 20.9999950855557 9.20001981964698
    vertex 43.19999306802433 7.799989782032077 9.200018290089355
    vertex 43.20000001354681 20.99998978201092 9.200018290089355
  endloop
endfacet
facet normal -7.767081523812919e-09 3.3828231536770543e-09 1.0
  outer loop
    vertex 23.99988213764402 20.999995085553316 9.20001981964725
    vertex 14.00000001354926 21.00000171838349 9.200018620562444
    vertex 23.999881446209713 15.99998058970849 9.200019506121437
  endloop
endfacet
facet normal -7.767081523812919e-09 3.3828231536770543e-09 1.0
  outer loop
    vertex 13.19999306802722 7.800000887047407 9.200018620562444
    vertex 14.000000014051032 44.99995765288183 9.200018588075393
    vertex 8.999996828465257 44.99995765288182 9.200018588072009
  endloop
endfacet
facet normal -7.767081523812919e-09 3.3828231536770543e-09 1.0
  outer loop
    vertex 14.000000014051032 44.99995765288183 9.200018588075393
    vertex 13.19999306802722 7.800000887047407 9.200018620562444
    vertex 14.00000001354926 21.00000171838349 9.200018620562444
  endloop
endfacet
facet normal 3.6849277218804336e-07 0.999999999999932 -1.3543790803323914e-13
  outer loop
    vertex 14.00000001354926 21.00000171838349 9.200018620562444
    vertex 23.999880727050083 20.999994976022418 2.2000306569585732
    vertex 13.999991328577684 21.00000160885262 2.2000213756494524
  endloop
endfacet
facet normal 3.6849277218804336e-07 0.999999999999932 -1.3543790803323914e-13
  outer loop
    vertex 23.999880727050083 20.999994976022418 2.2000306569585732
    vertex 14.00000001354926 21.00000171838349 9.200018620562444
    vertex 23.99988213764402 20.999995085553316 9.20001981964725
  endloop
endfacet
facet normal 0.9999999999998657 -4.94619138331884e-07 -1.5542856547472286e-07
  outer loop
    vertex 43.19999306181065 7.7999897847383375 2.1045176817224842e-05
    vertex 43.20000001354681 20.99998978201092 9.200018290089355
    vertex 43.19999306802433 7.799989782032077 9.200018290089355
  endloop
endfacet
facet normal 0.9999999999998657 -4.94619138331884e-07 -1.5542856547472286e-07
  outer loop
    vertex 43.20000001354681 20.99998978201092 9.200018290089355
    vertex 43.19999306181065 7.7999897847383375 2.1045176817224842e-05
    vertex 43.1999927329555 20.99998978471718 2.1045176817224842e-05
  endloop
endfacet
facet normal 7.748045409238322e-07 0.999999999999664 2.6794457774399603e-07
  outer loop
    vertex 11.999999379288267 9.000012030881486 8.000001502459043
    vertex 42.00000397434667 8.999989389043098 3.1698477959096746e-05
    vertex 11.999996469535857 9.000012030881486 0.0
  endloop
endfacet
facet normal 7.748045409238322e-07 0.999999999999664 2.6794457774399603e-07
  outer loop
    vertex 42.00000397434667 8.999989389043098 3.1698477959096746e-05
    vertex 11.999999379288267 9.000012030881486 8.000001502459043
    vertex 42.000031961790604 8.99998295836205 8.000029181655197
  endloop
endfacet
facet normal 1.0 1.023115614138603e-10 -1.7062664539607157e-26
  outer loop
    vertex 1.9999999986186638 87.2 1.8400408309915406e-05
    vertex 2.000000007335609 1.9999999999999962 8.000018620562447
    vertex 2.000000007335609 1.9999999999999962 1.8620562461535427e-05
  endloop
endfacet
facet normal 1.0 1.023115614138603e-10 -1.7062664539607157e-26
  outer loop
    vertex 2.000000007335609 1.9999999999999962 8.000018620562447
    vertex 1.9999999986186638 87.2 1.8400408309915406e-05
    vertex 1.9999999986186638 87.2 8.000018400408296
  endloop
endfacet
facet normal -1.76364364051657e-07 5.0808791781038186e-08 -0.9999999999999831
  outer loop
    vertex 1.9999999986186638 87.2 8.000018400408296
    vertex 8.999996810176894 60.999957662820286 8.000018135744424
    vertex 2.000000007335609 1.9999999999999962 8.000018620562447
  endloop
endfacet
facet normal -1.76364364051657e-07 5.0808791781038186e-08 -0.9999999999999831
  outer loop
    vertex 8.999996810176894 60.999957662820286 8.000018135744424
    vertex 1.9999999986186638 87.2 8.000018400408296
    vertex 12.800000005954212 81.19999998721006 8.000018519691299
  endloop
endfacet
facet normal -1.76364364051657e-07 5.0808791781038186e-08 -0.9999999999999831
  outer loop
    vertex 12.800000005954212 81.19999998721006 8.000018519691299
    vertex 1.9999999986186638 87.2 8.000018400408296
    vertex 13.999999998618643 87.2 8.000018400408296
  endloop
endfacet
facet normal -1.76364364051657e-07 5.0808791781038186e-08 -0.9999999999999831
  outer loop
    vertex 8.999996810176894 60.999957662820286 8.000018135744424
    vertex 12.800000005954212 81.19999998721006 8.000018519691299
    vertex 12.799999726362657 60.99995765003034 8.000018128319791
  endloop
endfacet
facet normal -1.76364364051657e-07 5.0808791781038186e-08 -0.9999999999999831
  outer loop
    vertex 12.800000005954212 81.19999998721006 8.000018519691299
    vertex 13.999999998618643 87.2 8.000018400408296
    vertex 14.00000000595421 81.2 8.000018519207618
  endloop
endfacet
facet normal -1.76364364051657e-07 5.0808791781038186e-08 -0.9999999999999831
  outer loop
    vertex 8.999996810678669 44.99995766282212 8.000018045385119
    vertex 12.000000239980615 19.800003136237947 8.000017476468972
    vertex 11.999999379288267 9.000012030881486 8.000001502459043
  endloop
endfacet
facet normal -1.76364364051657e-07 5.0808791781038186e-08 -0.9999999999999831
  outer loop
    vertex 12.000000239980615 19.800003136237947 8.000017476468972
    vertex 8.999996810678669 44.99995766282212 8.000018045385119
    vertex 12.799999660753 44.99995778925192 8.000018587678118
  endloop
endfacet
facet normal -1.76364364051657e-07 5.0808791781038186e-08 -0.9999999999999831
  outer loop
    vertex 12.000000239980615 19.800003136237947 8.000017476468972
    vertex 12.799999660753 44.99995778925192 8.000018587678118
    vertex 12.800000239980388 19.80000326266775 8.000018035185773
  endloop
endfacet
facet normal -1.76364364051657e-07 5.0808791781038186e-08 -0.9999999999999831
  outer loop
    vertex 2.000000007335609 1.9999999999999962 8.000018620562447
    vertex 8.999996810678669 44.99995766282212 8.000018045385119
    vertex 12.00000000733559 1.9999999999999962 8.000018620562447
  endloop
endfacet
facet normal -1.76364364051657e-07 5.0808791781038186e-08 -0.9999999999999831
  outer loop
    vertex 8.999996810678669 44.99995766282212 8.000018045385119
    vertex 2.000000007335609 1.9999999999999962 8.000018620562447
    vertex 8.999996810176894 60.999957662820286 8.000018135744424
  endloop
endfacet
facet normal -1.76364364051657e-07 5.0808791781038186e-08 -0.9999999999999831
  outer loop
    vertex 12.00000000733559 1.9999999999999962 8.000018620562447
    vertex 8.999996810678669 44.99995766282212 8.000018045385119
    vertex 11.999999379288267 9.000012030881486 8.000001502459043
  endloop
endfacet
facet normal -4.1106892942469334e-07 -0.9999999999999155 -0.0
  outer loop
    vertex 43.19999306802433 7.799989782032077 9.200018290089355
    vertex 13.199993061813549 7.800000889753667 2.137564990754015e-05
    vertex 43.19999306181065 7.7999897847383375 2.1045176817224842e-05
  endloop
endfacet
facet normal -4.1106892942469334e-07 -0.9999999999999155 -0.0
  outer loop
    vertex 13.199993061813549 7.800000889753667 2.137564990754015e-05
    vertex 43.19999306802433 7.799989782032077 9.200018290089355
    vertex 13.19999306802722 7.800000887047407 9.200018620562444
  endloop
endfacet
facet normal -1.0 1.598743059633764e-08 -6.046070691522976e-10
  outer loop
    vertex 12.800000005954212 81.19999998721006 8.000018519691299
    vertex 12.799999686774253 60.999957846886815 2.2000202826557556
    vertex 12.799999726362657 60.99995765003034 8.000018128319791
  endloop
endfacet
facet normal -1.0 1.598743059633764e-08 -6.046070691522976e-10
  outer loop
    vertex 12.799999686774253 60.999957846886815 2.2000202826557556
    vertex 12.800000005954212 81.19999998721006 8.000018519691299
    vertex 12.800000026326055 80.20000010854613 3.7000184819983484
  endloop
endfacet
facet normal -1.0 1.598743059633764e-08 -6.046070691522976e-10
  outer loop
    vertex 12.800000026326055 80.20000010854613 3.7000184819983484
    vertex 12.800000005954212 81.19999998721006 8.000018519691299
    vertex 12.800000026326055 81.20000010854613 3.700018510216061
  endloop
endfacet
facet normal -1.0 1.598743059633764e-08 -6.046070691522976e-10
  outer loop
    vertex 12.800000033432507 80.20000015087268 2.2000184914735965
    vertex 12.799999686774253 60.999957846886815 2.2000202826557556
    vertex 12.800000026326055 80.20000010854613 3.7000184819983484
  endloop
endfacet
facet normal -0.9999999999997438 -1.580372490398787e-07 -6.983959911293991e-07
  outer loop
    vertex 12.800000239980388 19.80000326266775 8.000018035185773
    vertex 12.79999818930604 44.999957710208655 2.2000207420136317
    vertex 12.800010076999639 19.80000315043062 2.2000165327211327
  endloop
endfacet
facet normal -0.9999999999997438 -1.580372490398787e-07 -6.983959911293991e-07
  outer loop
    vertex 12.79999818930604 44.999957710208655 2.2000207420136317
    vertex 12.800000239980388 19.80000326266775 8.000018035185773
    vertex 12.799999660753 44.99995778925192 8.000018587678118
  endloop
endfacet
facet normal -0.9999999999999392 -2.9755952847621374e-07 1.8185952566084064e-07
  outer loop
    vertex 11.999999379288267 9.000012030881486 8.000001502459043
    vertex 12.00000000733559 1.9999999999999962 1.8620562461535427e-05
    vertex 12.00000000733559 1.9999999999999962 8.000018620562447
  endloop
endfacet
facet normal -0.9999999999999392 -2.9755952847621374e-07 1.8185952566084064e-07
  outer loop
    vertex 12.00000000733559 1.9999999999999962 1.8620562461535427e-05
    vertex 11.999999379288267 9.000012030881486 8.000001502459043
    vertex 11.999996469535857 9.000012030881486 0.0
  endloop
endfacet
facet normal 0.0 1.0 0.0
  outer loop
    vertex 0.800000004832293 88.39999999737192 9.200018400408293
    vertex 13.999999998618643 88.4 1.8400408309915406e-05
    vertex 0.799999998618621 88.4000000000782 1.8400408309915406e-05
  endloop
endfacet
facet normal 0.0 1.0 0.0
  outer loop
    vertex 13.999999998618643 88.4 1.8400408309915406e-05
    vertex 0.800000004832293 88.39999999737192 9.200018400408293
    vertex 14.000000004832314 88.39999999729375 9.200018400408293
  endloop
endfacet
facet normal -1.0 -9.772359901861992e-11 4.67627325720138e-27
  outer loop
    vertex 0.800000004832293 88.39999999737192 9.200018400408293
    vertex 0.8000000073355661 0.8000000000781793 1.8620562461535427e-05
    vertex 0.8000000135492381 0.7999999973719252 9.200018620562444
  endloop
endfacet
facet normal -1.0 -9.772359901861992e-11 4.67627325720138e-27
  outer loop
    vertex 0.8000000073355661 0.8000000000781793 1.8620562461535427e-05
    vertex 0.800000004832293 88.39999999737192 9.200018400408293
    vertex 0.799999998618621 88.4000000000782 1.8400408309915406e-05
  endloop
endfacet
facet normal -1.0 2.41203143922598e-13 -2.894463305793487e-14
  outer loop
    vertex 39.99988144612143 15.999980589710876 9.200019506121167
    vertex 39.999882563652626 19.799978957606918 8.000028811369008
    vertex 39.999881439906225 15.999978957607228 8.000028094569307
  endloop
endfacet
facet normal -1.0 2.41203143922598e-13 -2.894463305793487e-14
  outer loop
    vertex 39.999882563652626 19.799978957606918 8.000028811369008
    vertex 39.99988144612143 15.999980589710876 9.200019506121167
    vertex 39.99988213755574 20.9999950855557 9.20001981964698
  endloop
endfacet
facet normal -1.0 2.41203143922598e-13 -2.894463305793487e-14
  outer loop
    vertex 39.999882563652626 19.799978957606918 8.000028811369008
    vertex 39.99988213755574 20.9999950855557 9.20001981964698
    vertex 39.99988256365416 19.799980592416695 3.1060232644009035e-05
  endloop
endfacet
facet normal -1.0 2.41203143922598e-13 -2.894463305793487e-14
  outer loop
    vertex 39.99988256365416 19.799980592416695 3.1060232644009035e-05
    vertex 39.99988213755574 20.9999950855557 9.20001981964698
    vertex 39.99988213134206 20.999995088261837 3.06569587575467e-05
  endloop
endfacet
facet normal 0.0 1.0 0.0
  outer loop
    vertex 2.000000007335609 1.9999999999999962 8.000018620562447
    vertex 12.00000000733559 1.9999999999999962 1.8620562461535427e-05
    vertex 2.000000007335609 1.9999999999999962 1.8620562461535427e-05
  endloop
endfacet
facet normal 0.0 1.0 0.0
  outer loop
    vertex 12.00000000733559 1.9999999999999962 1.8620562461535427e-05
    vertex 2.000000007335609 1.9999999999999962 8.000018620562447
    vertex 12.00000000733559 1.9999999999999962 8.000018620562447
  endloop
endfacet
facet normal -6.272041644348094e-11 1.0 4.060882603812382e-09
  outer loop
    vertex 8.999996828465257 44.99995765288182 9.200018588072009
    vertex 12.799999660753 44.99995778925192 8.000018587678118
    vertex 8.999996810678669 44.99995766282212 8.000018045385119
  endloop
endfacet
facet normal -6.272041644348094e-11 1.0 4.060882603812382e-09
  outer loop
    vertex 12.79999818930604 44.999957710208655 2.2000207420136317
    vertex 14.000000014051032 44.99995765288183 9.200018588075393
    vertex 13.999998524817483 44.999957583778844 2.200020199724016
  endloop
endfacet
facet normal -6.272041644348094e-11 1.0 4.060882603812382e-09
  outer loop
    vertex 14.000000014051032 44.99995765288183 9.200018588075393
    vertex 12.79999818930604 44.999957710208655 2.2000207420136317
    vertex 12.799999660753 44.99995778925192 8.000018587678118
  endloop
endfacet
facet normal -6.272041644348094e-11 1.0 4.060882603812382e-09
  outer loop
    vertex 14.000000014051032 44.99995765288183 9.200018588075393
    vertex 12.799999660753 44.99995778925192 8.000018587678118
    vertex 8.999996828465257 44.99995765288182 9.200018588072009
  endloop
endfacet
facet normal 2.3047809920492014e-07 0.999999999999968 1.0450860461787414e-07
  outer loop
    vertex 23.999881446209713 15.99998058970849 9.200019506121437
    vertex 39.999881439906225 15.999978957607228 8.000028094569307
    vertex 23.999881439997935 15.999982645254752 8.000025000560964
  endloop
endfacet
facet normal 2.3047809920492014e-07 0.999999999999968 1.0450860461787414e-07
  outer loop
    vertex 39.999881439906225 15.999978957607228 8.000028094569307
    vertex 23.999881446209713 15.99998058970849 9.200019506121437
    vertex 39.99988144612143 15.999980589710876 9.200019506121167
  endloop
endfacet
facet normal 1.0 2.9795610640129973e-13 -3.575514371568645e-14
  outer loop
    vertex 23.999880727050083 20.999994976022418 2.2000306569585732
    vertex 23.99988299213361 19.799982645254186 8.000025211445411
    vertex 23.999881587751457 19.799980480177027 2.2000305543172076
  endloop
endfacet
facet normal 1.0 2.9795610640129973e-13 -3.575514371568645e-14
  outer loop
    vertex 23.999881439997935 15.999982645254752 8.000025000560964
    vertex 23.99988213764402 20.999995085553316 9.20001981964725
    vertex 23.999881446209713 15.99998058970849 9.200019506121437
  endloop
endfacet
facet normal 1.0 2.9795610640129973e-13 -3.575514371568645e-14
  outer loop
    vertex 23.99988213764402 20.999995085553316 9.20001981964725
    vertex 23.999881439997935 15.999982645254752 8.000025000560964
    vertex 23.99988299213361 19.799982645254186 8.000025211445411
  endloop
endfacet
facet normal 1.0 2.9795610640129973e-13 -3.575514371568645e-14
  outer loop
    vertex 23.99988213764402 20.999995085553316 9.20001981964725
    vertex 23.99988299213361 19.799982645254186 8.000025211445411
    vertex 23.999880727050083 20.999994976022418 2.2000306569585732
  endloop
endfacet
facet normal 1.0 4.1860050470956975e-17 -5.786544975749351e-09
  outer loop
    vertex 8.999996810678669 44.99995766282212 8.000018045385119
    vertex 8.999996827963484 60.99995765287999 9.200018678431315
    vertex 8.999996828465257 44.99995765288182 9.200018588072009
  endloop
endfacet
facet normal 1.0 4.1860050470956975e-17 -5.786544975749351e-09
  outer loop
    vertex 8.999996827963484 60.99995765287999 9.200018678431315
    vertex 8.999996810678669 44.99995766282212 8.000018045385119
    vertex 8.999996810176894 60.999957662820286 8.000018135744424
  endloop
endfacet
facet normal 0.0 -1.0 0.0
  outer loop
    vertex 13.200000013549712 0.7999991659365042 9.200018620562444
    vertex 0.8000000073355661 0.8000000000781793 1.8620562461535427e-05
    vertex 13.20000000733604 0.7999991686427583 1.8620562461535427e-05
  endloop
endfacet
facet normal 0.0 -1.0 0.0
  outer loop
    vertex 0.8000000073355661 0.8000000000781793 1.8620562461535427e-05
    vertex 13.200000013549712 0.7999991659365042 9.200018620562444
    vertex 0.8000000135492381 0.7999999973719252 9.200018620562444
  endloop
endfacet
facet normal 3.6104911916795246e-09 -0.9999999999999998 -2.7018361970992563e-08
  outer loop
    vertex 14.00000001354926 60.99995765287999 9.200018620562444
    vertex 12.799999686774253 60.999957846886815 2.2000202826557556
    vertex 13.999999956174266 60.99995785967676 2.2000202322115183
  endloop
endfacet
facet normal 3.6104911916795246e-09 -0.9999999999999998 -2.7018361970992563e-08
  outer loop
    vertex 12.799999686774253 60.999957846886815 2.2000202826557556
    vertex 14.00000001354926 60.99995765287999 9.200018620562444
    vertex 12.799999726362657 60.99995765003034 8.000018128319791
  endloop
endfacet
facet normal 3.6104911916795246e-09 -0.9999999999999998 -2.7018361970992563e-08
  outer loop
    vertex 12.799999726362657 60.99995765003034 8.000018128319791
    vertex 14.00000001354926 60.99995765287999 9.200018620562444
    vertex 8.999996810176894 60.999957662820286 8.000018135744424
  endloop
endfacet
facet normal 3.6104911916795246e-09 -0.9999999999999998 -2.7018361970992563e-08
  outer loop
    vertex 8.999996810176894 60.999957662820286 8.000018135744424
    vertex 14.00000001354926 60.99995765287999 9.200018620562444
    vertex 8.999996827963484 60.99995765287999 9.200018678431315
  endloop
endfacet
facet normal 2.8942663359766537e-07 1.904488423071211e-08 -0.999999999999958
  outer loop
    vertex 0.799999998618621 88.4000000000782 1.8400408309915406e-05
    vertex 1.9999999986186638 87.2 1.8400408309915406e-05
    vertex 0.8000000073355661 0.8000000000781793 1.8620562461535427e-05
  endloop
endfacet
facet normal 2.8942663359766537e-07 1.904488423071211e-08 -0.999999999999958
  outer loop
    vertex 1.9999999986186638 87.2 1.8400408309915406e-05
    vertex 0.799999998618621 88.4000000000782 1.8400408309915406e-05
    vertex 13.999999998618643 88.4 1.8400408309915406e-05
  endloop
endfacet
facet normal 2.8942663359766537e-07 1.904488423071211e-08 -0.999999999999958
  outer loop
    vertex 1.9999999986186638 87.2 1.8400408309915406e-05
    vertex 13.999999998618643 88.4 1.8400408309915406e-05
    vertex 13.999999998618643 87.2 1.8400408309915406e-05
  endloop
endfacet
facet normal 2.8942663359766537e-07 1.904488423071211e-08 -0.999999999999958
  outer loop
    vertex 43.1999927329555 20.99998978471718 2.1045176817224842e-05
    vertex 39.99988256365416 19.799980592416695 3.1060232644009035e-05
    vertex 39.99988213134206 20.999995088261837 3.06569587575467e-05
  endloop
endfacet
facet normal 2.8942663359766537e-07 1.904488423071211e-08 -0.999999999999958
  outer loop
    vertex 39.99988256365416 19.799980592416695 3.1060232644009035e-05
    vertex 43.1999927329555 20.99998978471718 2.1045176817224842e-05
    vertex 42.00000440665876 19.79998190951501 3.210175184555908e-05
  endloop
endfacet
facet normal 2.8942663359766537e-07 1.904488423071211e-08 -0.999999999999958
  outer loop
    vertex 11.999996469535857 9.000012030881486 0.0
    vertex 13.199993061813549 7.800000889753667 2.137564990754015e-05
    vertex 12.00000000733559 1.9999999999999962 1.8620562461535427e-05
  endloop
endfacet
facet normal 2.8942663359766537e-07 1.904488423071211e-08 -0.999999999999958
  outer loop
    vertex 13.199993061813549 7.800000889753667 2.137564990754015e-05
    vertex 11.999996469535857 9.000012030881486 0.0
    vertex 42.00000397434667 8.999989389043098 3.1698477959096746e-05
  endloop
endfacet
facet normal 2.8942663359766537e-07 1.904488423071211e-08 -0.999999999999958
  outer loop
    vertex 13.199993061813549 7.800000889753667 2.137564990754015e-05
    vertex 42.00000397434667 8.999989389043098 3.1698477959096746e-05
    vertex 43.19999306181065 7.7999897847383375 2.1045176817224842e-05
  endloop
endfacet
facet normal 2.8942663359766537e-07 1.904488423071211e-08 -0.999999999999958
  outer loop
    vertex 43.19999306181065 7.7999897847383375 2.1045176817224842e-05
    vertex 42.00000397434667 8.999989389043098 3.1698477959096746e-05
    vertex 42.00000440665876 19.79998190951501 3.210175184555908e-05
  endloop
endfacet
facet normal 2.8942663359766537e-07 1.904488423071211e-08 -0.999999999999958
  outer loop
    vertex 43.19999306181065 7.7999897847383375 2.1045176817224842e-05
    vertex 42.00000440665876 19.79998190951501 3.210175184555908e-05
    vertex 43.1999927329555 20.99998978471718 2.1045176817224842e-05
  endloop
endfacet
facet normal 2.8942663359766537e-07 1.904488423071211e-08 -0.999999999999958
  outer loop
    vertex 0.8000000073355661 0.8000000000781793 1.8620562461535427e-05
    vertex 2.000000007335609 1.9999999999999962 1.8620562461535427e-05
    vertex 13.20000000733604 0.7999991686427583 1.8620562461535427e-05
  endloop
endfacet
facet normal 2.8942663359766537e-07 1.904488423071211e-08 -0.999999999999958
  outer loop
    vertex 2.000000007335609 1.9999999999999962 1.8620562461535427e-05
    vertex 0.8000000073355661 0.8000000000781793 1.8620562461535427e-05
    vertex 1.9999999986186638 87.2 1.8400408309915406e-05
  endloop
endfacet
facet normal 2.8942663359766537e-07 1.904488423071211e-08 -0.999999999999958
  outer loop
    vertex 13.20000000733604 0.7999991686427583 1.8620562461535427e-05
    vertex 2.000000007335609 1.9999999999999962 1.8620562461535427e-05
    vertex 12.00000000733559 1.9999999999999962 1.8620562461535427e-05
  endloop
endfacet
facet normal 2.8942663359766537e-07 1.904488423071211e-08 -0.999999999999958
  outer loop
    vertex 13.20000000733604 0.7999991686427583 1.8620562461535427e-05
    vertex 12.00000000733559 1.9999999999999962 1.8620562461535427e-05
    vertex 13.199993061813549 7.800000889753667 2.137564990754015e-05
  endloop
endfacet
facet normal 4.737633929607916e-09 2.8217712610967322e-08 -0.9999999999999996
  outer loop
    vertex 14.000000026326054 81.20000012133609 3.700018519207648
    vertex 12.800000026326055 80.20000010854613 3.7000184819983484
    vertex 12.800000026326055 81.20000010854613 3.700018510216061
  endloop
endfacet
facet normal 4.737633929607916e-09 2.8217712610967322e-08 -0.9999999999999996
  outer loop
    vertex 12.800000026326055 80.20000010854613 3.7000184819983484
    vertex 14.000000026326054 81.20000012133609 3.700018519207648
    vertex 14.000000026326054 80.20000012133609 3.7000184909899354
  endloop
endfacet
facet normal 1.4247693164781494e-06 0.999999999998985 -5.244199926458338e-13
  outer loop
    vertex 39.99988213134206 20.999995088261837 3.06569587575467e-05
    vertex 43.20000001354681 20.99998978201092 9.200018290089355
    vertex 43.1999927329555 20.99998978471718 2.1045176817224842e-05
  endloop
endfacet
facet normal 1.4247693164781494e-06 0.999999999998985 -5.244199926458338e-13
  outer loop
    vertex 43.20000001354681 20.99998978201092 9.200018290089355
    vertex 39.99988213134206 20.999995088261837 3.06569587575467e-05
    vertex 39.99988213755574 20.9999950855557 9.20001981964698
  endloop
endfacet
facet normal -1.0758767362808342e-06 -0.9999999999994131 1.2830172192012517e-07
  outer loop
    vertex 23.999881587751457 19.799980480177027 2.2000305543172076
    vertex 12.800000239980388 19.80000326266775 8.000018035185773
    vertex 12.800010076999639 19.80000315043062 2.2000165327211327
  endloop
endfacet
facet normal -1.0758767362808342e-06 -0.9999999999994131 1.2830172192012517e-07
  outer loop
    vertex 12.800000239980388 19.80000326266775 8.000018035185773
    vertex 23.999881587751457 19.799980480177027 2.2000305543172076
    vertex 23.99988299213361 19.799982645254186 8.000025211445411
  endloop
endfacet
facet normal 6.248071454038211e-07 6.967097198362331e-07 -0.9999999999995621
  outer loop
    vertex 23.99988299213361 19.799982645254186 8.000025211445411
    vertex 23.999881439997935 15.999982645254752 8.000025000560964
    vertex 12.800000239980388 19.80000326266775 8.000018035185773
  endloop
endfacet
facet normal 6.248071454038211e-07 6.967097198362331e-07 -0.9999999999995621
  outer loop
    vertex 12.000000239980615 19.800003136237947 8.000017476468972
    vertex 42.000031961790604 8.99998295836205 8.000029181655197
    vertex 11.999999379288267 9.000012030881486 8.000001502459043
  endloop
endfacet
facet normal 6.248071454038211e-07 6.967097198362331e-07 -0.9999999999995621
  outer loop
    vertex 42.000031961790604 8.99998295836205 8.000029181655197
    vertex 12.000000239980615 19.800003136237947 8.000017476468972
    vertex 12.800000239980388 19.80000326266775 8.000018035185773
  endloop
endfacet
facet normal 6.248071454038211e-07 6.967097198362331e-07 -0.9999999999995621
  outer loop
    vertex 42.000031961790604 8.99998295836205 8.000029181655197
    vertex 12.800000239980388 19.80000326266775 8.000018035185773
    vertex 23.999881439997935 15.999982645254752 8.000025000560964
  endloop
endfacet
facet normal 6.248071454038211e-07 6.967097198362331e-07 -0.9999999999995621
  outer loop
    vertex 42.000031961790604 8.99998295836205 8.000029181655197
    vertex 23.999881439997935 15.999982645254752 8.000025000560964
    vertex 39.999881439906225 15.999978957607228 8.000028094569307
  endloop
endfacet
facet normal 6.248071454038211e-07 6.967097198362331e-07 -0.9999999999995621
  outer loop
    vertex 42.000031961790604 8.99998295836205 8.000029181655197
    vertex 39.999881439906225 15.999978957607228 8.000028094569307
    vertex 39.999882563652626 19.799978957606918 8.000028811369008
  endloop
endfacet
facet normal 6.248071454038211e-07 6.967097198362331e-07 -0.9999999999995621
  outer loop
    vertex 42.000031961790604 8.99998295836205 8.000029181655197
    vertex 39.999882563652626 19.799978957606918 8.000028811369008
    vertex 42.0000323941027 19.799975478833964 8.000029584929083
  endloop
endfacet
endsolid Kabelkanal
