<?xml version="1.0" encoding="UTF-8" standalone="no"?>
<!-- Created with Inkscape (http://www.inkscape.org/) -->

<svg
   xmlns:dc="http://purl.org/dc/elements/1.1/"
   xmlns:cc="http://creativecommons.org/ns#"
   xmlns:rdf="http://www.w3.org/1999/02/22-rdf-syntax-ns#"
   xmlns:svg="http://www.w3.org/2000/svg"
   xmlns="http://www.w3.org/2000/svg"
   xmlns:sodipodi="http://sodipodi.sourceforge.net/DTD/sodipodi-0.dtd"
   xmlns:inkscape="http://www.inkscape.org/namespaces/inkscape"
   width="425"
   height="500"
   id="svg2"
   version="1.1"
   inkscape:version="0.48.3.1 r9886"
   sodipodi:docname="Neues Dokument 1">
  <defs
     id="defs4" />
  <sodipodi:namedview
     id="base"
     pagecolor="#ffffff"
     bordercolor="#666666"
     borderopacity="1.0"
     inkscape:pageopacity="0.0"
     inkscape:pageshadow="2"
     inkscape:zoom="0.98994949"
     inkscape:cx="140.9597"
     inkscape:cy="274.89556"
     inkscape:document-units="px"
     inkscape:current-layer="layer1"
     showgrid="true"
     inkscape:window-width="1280"
     inkscape:window-height="969"
     inkscape:window-x="-3"
     inkscape:window-y="-3"
     inkscape:window-maximized="1">
    <inkscape:grid
       type="xygrid"
       id="grid2985"
       empspacing="5"
       visible="true"
       enabled="true"
       snapvisiblegridlinesonly="true"
       spacingx="5px"
       spacingy="5px" />
  </sodipodi:namedview>
  <metadata
     id="metadata7">
    <rdf:RDF>
      <cc:Work
         rdf:about="">
        <dc:format>image/svg+xml</dc:format>
        <dc:type
           rdf:resource="http://purl.org/dc/dcmitype/StillImage" />
        <dc:title></dc:title>
      </cc:Work>
    </rdf:RDF>
  </metadata>
  <g
     inkscape:label="Ebene 1"
     inkscape:groupmode="layer"
     id="layer1"
     transform="translate(0,-552.36218)">
    <path
       style="fill:none;stroke:#000000;stroke-width:1;stroke-miterlimit:4;stroke-dasharray:none;stroke-dashoffset:0"
       d="m 265.98008,758.09783 18.62785,-18.62785 28.28427,28.28427 -18.62784,18.62785"
       id="path2987"
       inkscape:connector-curvature="0"
       sodipodi:nodetypes="cccc" />
    <path
       style="fill:#b5feff;fill-opacity:1;stroke:#008080;stroke-width:1;stroke-miterlimit:4;stroke-dasharray:none;stroke-dashoffset:0"
       d="m 177.5,974.83093 c 40.29992,-0.4042 78.32059,-28.84999 90.25,-67.34375 2.94679,-8.92539 4.463,-18.25886 4.71875,-27.625 -31.65625,0 -63.3125,0 -94.96875,0 0,31.65625 0,63.3125 0,94.96875 z"
       id="path2998"
       inkscape:connector-curvature="0" />
    <path
       style="fill:#b5feff;fill-opacity:1;stroke:#008080;stroke-width:1;stroke-miterlimit:4;stroke-dasharray:none;stroke-dashoffset:0"
       d="m 272.46875,874.8622 c -0.4042,-40.29992 -28.84999,-78.32059 -67.34375,-90.25 -8.92539,-2.94679 -18.25886,-4.463 -27.625,-4.71875 0,31.65625 0,63.3125 0,94.96875 31.65625,0 63.3125,0 94.96875,0 z"
       id="path2998-2"
       inkscape:connector-curvature="0" />
    <path
       style="fill:#b5feff;fill-opacity:1;stroke:#008080;stroke-width:1;stroke-miterlimit:4;stroke-dasharray:none;stroke-dashoffset:0"
       d="m 77.53125,874.8622 c 0.4042,-40.29992 28.84999,-78.32059 67.34375,-90.25 8.92539,-2.94679 18.25886,-4.463 27.625,-4.71875 0,31.65625 0,63.3125 0,94.96875 -31.65625,0 -63.3125,0 -94.96875,0 z"
       id="path2998-1"
       inkscape:connector-curvature="0" />
    <path
       style="fill:#b5feff;fill-opacity:1;stroke:#008080;stroke-width:1;stroke-miterlimit:4;stroke-dasharray:none;stroke-dashoffset:0"
       d="m 77.53125,879.86218 c 0.4042,40.29992 28.84999,78.32059 67.34375,90.25 8.92539,2.94679 18.25886,4.463 27.625,4.71875 0,-31.65625 0,-63.3125 0,-94.96875 -31.65625,0 -63.3125,0 -94.96875,0 z"
       id="path2998-25"
       inkscape:connector-curvature="0" />
    <path
       style="fill:none;stroke:#000000;stroke-width:1.5;stroke-linecap:butt;stroke-linejoin:miter;stroke-opacity:1"
       d="m 225,817.36218 -20,15 20,15 z"
       id="path3042"
       inkscape:connector-curvature="0" />
    <path
       style="fill:none;stroke:#000000;stroke-width:1.5;stroke-linecap:butt;stroke-linejoin:miter;stroke-opacity:1"
       d="m 205,847.36218 0,-30"
       id="path3044"
       inkscape:connector-curvature="0" />
    <path
       style="fill:none;stroke:#000000;stroke-width:1.5;stroke-linecap:butt;stroke-linejoin:miter;stroke-opacity:1"
       d="m 145,817.36218 -20,15 20,15 z"
       id="path3042-6"
       inkscape:connector-curvature="0" />
    <path
       style="fill:none;stroke:#000000;stroke-width:1.5;stroke-linecap:butt;stroke-linejoin:miter;stroke-opacity:1"
       d="m 125,847.36218 0,-30"
       id="path3044-1"
       inkscape:connector-curvature="0" />
    <path
       style="fill:none;stroke:#000000;stroke-width:1.5;stroke-linecap:butt;stroke-linejoin:miter;stroke-opacity:1"
       d="m 145,907.36218 -20,15 20,15 z"
       id="path3042-8"
       inkscape:connector-curvature="0" />
    <path
       style="fill:none;stroke:#000000;stroke-width:1.5;stroke-linecap:butt;stroke-linejoin:miter;stroke-opacity:1"
       d="m 125,937.36218 0,-30"
       id="path3044-15"
       inkscape:connector-curvature="0" />
    <path
       style="fill:none;stroke:#000000;stroke-width:1.5;stroke-linecap:butt;stroke-linejoin:miter;stroke-opacity:1"
       d="m 225,907.36218 -20,15 20,15 z"
       id="path3042-60"
       inkscape:connector-curvature="0" />
    <path
       style="fill:none;stroke:#000000;stroke-width:1.5;stroke-linecap:butt;stroke-linejoin:miter;stroke-opacity:1"
       d="m 205,937.36218 0,-30"
       id="path3044-0"
       inkscape:connector-curvature="0" />
    <path
       style="fill:none;stroke:#000000;stroke-width:1.5;stroke-linecap:butt;stroke-linejoin:miter;stroke-opacity:1"
       d="m 125,832.36218 -25,0 0,90 25,0"
       id="path3085"
       inkscape:connector-curvature="0" />
    <path
       style="fill:none;stroke:#000000;stroke-width:1.5;stroke-linecap:butt;stroke-linejoin:miter;stroke-opacity:1"
       d="m 205,922.36218 -15,0 0,-90 15,0"
       id="path3087"
       inkscape:connector-curvature="0" />
    <path
       style="fill:none;stroke:#000000;stroke-width:1.5;stroke-linecap:butt;stroke-linejoin:miter;stroke-opacity:1"
       d="m 125,832.36218 30,0 0,-220 140,0"
       id="path3093"
       inkscape:connector-curvature="0"
       sodipodi:nodetypes="cccc" />
    <path
       style="fill:none;stroke:#000000;stroke-width:1.5;stroke-linecap:butt;stroke-linejoin:miter;stroke-opacity:1"
       d="m 125,922.36218 40,0 0,-335 130,0"
       id="path3095"
       inkscape:connector-curvature="0"
       sodipodi:nodetypes="cccc" />
    <path
       style="fill:none;stroke:#000000;stroke-width:1.5;stroke-linecap:butt;stroke-linejoin:miter;stroke-opacity:1"
       d="m 205,832.36218 30,0 0,-195 60,0"
       id="path3097"
       inkscape:connector-curvature="0"
       sodipodi:nodetypes="cccc" />
    <path
       style="fill:none;stroke:#000000;stroke-width:1.5;stroke-linecap:butt;stroke-linejoin:miter;stroke-opacity:1"
       d="m 205,922.36218 40,0 0,-260 50,0"
       id="path3099"
       inkscape:connector-curvature="0"
       sodipodi:nodetypes="cccc" />
    <path
       style="fill:none;stroke:#000000;stroke-width:1.5;stroke-linecap:butt;stroke-linejoin:miter;stroke-opacity:1"
       d="m 190,832.36218 0,-135 105,0"
       id="path3101"
       inkscape:connector-curvature="0"
       sodipodi:nodetypes="ccc" />
    <path
       style="fill:none;stroke:#000000;stroke-width:1.5;stroke-linecap:butt;stroke-linejoin:miter;stroke-opacity:1"
       d="m 100,832.36218 0,-135 90,0"
       id="path3103"
       inkscape:connector-curvature="0"
       sodipodi:nodetypes="ccc" />
    <path
       sodipodi:type="arc"
       style="fill:#000000;stroke:none"
       id="path3105"
       sodipodi:cx="127.5"
       sodipodi:cy="252.5"
       sodipodi:rx="2.5"
       sodipodi:ry="2.5"
       d="m 130,252.5 c 0,1.38071 -1.11929,2.5 -2.5,2.5 -1.38071,0 -2.5,-1.11929 -2.5,-2.5 0,-1.38071 1.11929,-2.5 2.5,-2.5 1.38071,0 2.5,1.11929 2.5,2.5 z"
       transform="translate(-27.5,579.86218)" />
    <path
       sodipodi:type="arc"
       style="fill:#000000;stroke:none"
       id="path3105-4"
       sodipodi:cx="127.5"
       sodipodi:cy="252.5"
       sodipodi:rx="2.5"
       sodipodi:ry="2.5"
       d="m 130,252.5 c 0,1.38071 -1.11929,2.5 -2.5,2.5 -1.38071,0 -2.5,-1.11929 -2.5,-2.5 0,-1.38071 1.11929,-2.5 2.5,-2.5 1.38071,0 2.5,1.11929 2.5,2.5 z"
       transform="translate(62.5,579.86218)" />
    <path
       sodipodi:type="arc"
       style="fill:none;stroke:#000000;stroke-width:2"
       id="path3125"
       sodipodi:cx="325"
       sodipodi:cy="90"
       sodipodi:rx="5"
       sodipodi:ry="5"
       d="m 330,90 c 0,2.761424 -2.23858,5 -5,5 -2.76142,0 -5,-2.238576 -5,-5 0,-2.761424 2.23858,-5 5,-5 2.76142,0 5,2.238576 5,5 z"
       transform="translate(-25,572.36218)" />
    <path
       transform="translate(-25,607.36218)"
       sodipodi:type="arc"
       style="fill:none;stroke:#000000;stroke-width:2"
       id="path3125-6"
       sodipodi:cx="325"
       sodipodi:cy="90"
       sodipodi:rx="5"
       sodipodi:ry="5"
       d="m 330,90 c 0,2.761424 -2.23858,5 -5,5 -2.76142,0 -5,-2.238576 -5,-5 0,-2.761424 2.23858,-5 5,-5 2.76142,0 5,2.238576 5,5 z" />
    <path
       transform="translate(-25,547.36218)"
       sodipodi:type="arc"
       style="fill:none;stroke:#000000;stroke-width:2"
       id="path3125-8"
       sodipodi:cx="325"
       sodipodi:cy="90"
       sodipodi:rx="5"
       sodipodi:ry="5"
       d="m 330,90 c 0,2.761424 -2.23858,5 -5,5 -2.76142,0 -5,-2.238576 -5,-5 0,-2.761424 2.23858,-5 5,-5 2.76142,0 5,2.238576 5,5 z" />
    <path
       transform="translate(-25,522.36218)"
       sodipodi:type="arc"
       style="fill:none;stroke:#000000;stroke-width:2"
       id="path3125-8-1"
       sodipodi:cx="325"
       sodipodi:cy="90"
       sodipodi:rx="5"
       sodipodi:ry="5"
       d="m 330,90 c 0,2.761424 -2.23858,5 -5,5 -2.76142,0 -5,-2.238576 -5,-5 0,-2.761424 2.23858,-5 5,-5 2.76142,0 5,2.238576 5,5 z" />
    <path
       transform="translate(-25,497.36218)"
       sodipodi:type="arc"
       style="fill:none;stroke:#000000;stroke-width:2"
       id="path3125-8-5"
       sodipodi:cx="325"
       sodipodi:cy="90"
       sodipodi:rx="5"
       sodipodi:ry="5"
       d="m 330,90 c 0,2.761424 -2.23858,5 -5,5 -2.76142,0 -5,-2.238576 -5,-5 0,-2.761424 2.23858,-5 5,-5 2.76142,0 5,2.238576 5,5 z" />
    <path
       sodipodi:type="arc"
       style="fill:#000000;stroke:none"
       id="path3105-4-6"
       sodipodi:cx="127.5"
       sodipodi:cy="252.5"
       sodipodi:rx="2.5"
       sodipodi:ry="2.5"
       d="m 130,252.5 c 0,1.38071 -1.11929,2.5 -2.5,2.5 -1.38071,0 -2.5,-1.11929 -2.5,-2.5 0,-1.38071 1.11929,-2.5 2.5,-2.5 1.38071,0 2.5,1.11929 2.5,2.5 z"
       transform="translate(62.5,444.86218)" />
    <text
       xml:space="preserve"
       style="font-size:20px;font-style:normal;font-variant:normal;font-weight:normal;font-stretch:normal;text-align:start;line-height:125%;letter-spacing:0px;word-spacing:0px;text-anchor:start;fill:#000000;fill-opacity:1;stroke:none;font-family:Serif;-inkscape-font-specification:Serif"
       x="315"
       y="667.36218"
       id="text3195"
       sodipodi:linespacing="125%"><tspan
         sodipodi:role="line"
         id="tspan3197"
         x="315"
         y="667.36218">Q1</tspan></text>
    <text
       xml:space="preserve"
       style="font-size:20px;font-style:normal;font-variant:normal;font-weight:normal;font-stretch:normal;text-align:start;line-height:125%;letter-spacing:0px;word-spacing:0px;text-anchor:start;fill:#000000;fill-opacity:1;stroke:none;font-family:Serif;-inkscape-font-specification:Serif"
       x="315"
       y="642.36218"
       id="text3195-6"
       sodipodi:linespacing="125%"><tspan
         sodipodi:role="line"
         id="tspan3197-8"
         x="315"
         y="642.36218">Q2</tspan></text>
    <text
       xml:space="preserve"
       style="font-size:20px;font-style:normal;font-variant:normal;font-weight:normal;font-stretch:normal;text-align:start;line-height:125%;letter-spacing:0px;word-spacing:0px;text-anchor:start;fill:#000000;fill-opacity:1;stroke:none;font-family:Serif;-inkscape-font-specification:Serif"
       x="315"
       y="617.36218"
       id="text3195-6-0"
       sodipodi:linespacing="125%"><tspan
         sodipodi:role="line"
         id="tspan3197-8-1"
         x="315"
         y="617.36218">Q3</tspan></text>
    <text
       xml:space="preserve"
       style="font-size:20px;font-style:normal;font-variant:normal;font-weight:normal;font-stretch:normal;text-align:start;line-height:125%;letter-spacing:0px;word-spacing:0px;text-anchor:start;fill:#000000;fill-opacity:1;stroke:none;font-family:Serif;-inkscape-font-specification:Serif"
       x="315"
       y="592.36218"
       id="text3195-6-0-7"
       sodipodi:linespacing="125%"><tspan
         sodipodi:role="line"
         id="tspan3197-8-1-9"
         x="315"
         y="592.36218">Q4</tspan></text>
    <text
       xml:space="preserve"
       style="font-size:20px;font-style:normal;font-variant:normal;font-weight:normal;font-stretch:normal;text-align:start;line-height:125%;letter-spacing:0px;word-spacing:0px;text-anchor:start;fill:#000000;fill-opacity:1;stroke:none;font-family:Serif;-inkscape-font-specification:Serif"
       x="315"
       y="702.36218"
       id="text3195-8"
       sodipodi:linespacing="125%"><tspan
         sodipodi:role="line"
         id="tspan3197-4"
         x="315"
         y="702.36218">Cathode</tspan></text>
    <path
       sodipodi:type="arc"
       style="fill:none;stroke:#000000;stroke-width:1;stroke-miterlimit:4;stroke-dasharray:none;stroke-dashoffset:0"
       id="path3283"
       sodipodi:cx="175"
       sodipodi:cy="325"
       sodipodi:rx="150"
       sodipodi:ry="150"
       d="M 325,325 C 325,407.84271 257.84271,475 175,475 92.157288,475 25,407.84271 25,325 25,242.15729 92.157288,175 175,175 c 82.84271,0 150,67.15729 150,150 z"
       transform="translate(0,552.36218)" />
    <path
       sodipodi:type="arc"
       style="fill:none;stroke:#000000;stroke-width:1;stroke-miterlimit:4;stroke-dasharray:none;stroke-dashoffset:0"
       id="path3285"
       sodipodi:cx="175"
       sodipodi:cy="325"
       sodipodi:rx="135"
       sodipodi:ry="135"
       d="m 310,325 c 0,74.55844 -60.44156,135 -135,135 -74.55844,0 -135,-60.44156 -135,-135 0,-74.55844 60.44156,-135 135,-135 74.55844,0 135,60.44156 135,135 z"
       transform="translate(0,552.36218)" />
  </g>
</svg>
