solid EncoderPlateHolderBack
facet normal -0.978369210220708 -0.20686635418092553 -6.866831825413125e-14
  outer loop
    vertex 30.92204215044825 70.44206856493165 4.499999999984865
    vertex 31.253604390910695 68.8739533021846 -1.5042053713720804e-11
    vertex 31.25360439091038 68.8739533021846 4.499999999984839
  endloop
endfacet
facet normal -0.978369210220708 -0.20686635418092553 -6.866831825413125e-14
  outer loop
    vertex 31.253604390910695 68.8739533021846 -1.5042053713720804e-11
    vertex 30.92204215044825 70.44206856493165 4.499999999984865
    vertex 30.922042150448565 70.44206856493165 -1.5057211033564498e-11
  endloop
endfacet
facet normal -0.9998715457999313 -0.016027847630175437 -7.017696825477471e-14
  outer loop
    vertex 30.000000000001613 79.99999999999986 4.499999999984819
    vertex 30.02568918996754 78.39742112141717 -1.507342584083915e-11
    vertex 30.025689189967224 78.39742112141717 4.499999999984857
  endloop
endfacet
facet normal -0.9998715457999313 -0.016027847630175437 -7.017696825477471e-14
  outer loop
    vertex 30.02568918996754 78.39742112141717 -1.507342584083915e-11
    vertex 30.000000000001613 79.99999999999986 4.499999999984819
    vertex 30.00000000000193 79.99999999999986 -1.504275870534144e-11
  endloop
endfacet
facet normal -0.9844969329687581 -0.17540179296434996 -6.909881796889017e-14
  outer loop
    vertex 30.640910829279076 72.02000524833123 4.499999999984839
    vertex 30.922042150448565 70.44206856493165 -1.5057211033564498e-11
    vertex 30.92204215044825 70.44206856493165 4.499999999984865
  endloop
endfacet
facet normal -0.9844969329687581 -0.17540179296434996 -6.909881796889017e-14
  outer loop
    vertex 30.922042150448565 70.44206856493165 -1.5057211033564498e-11
    vertex 30.640910829279076 72.02000524833123 4.499999999984839
    vertex 30.64091082927939 72.02000524833123 -1.5048751134116856e-11
  endloop
endfacet
facet normal -0.9937122098932439 -0.11196447610329685 -6.974349829137199e-14
  outer loop
    vertex 30.231044352541705 75.19884870461597 4.499999999984854
    vertex 30.4104993088396 73.60614191577483 -1.5045931167634306e-11
    vertex 30.410499308839285 73.60614191577483 4.499999999984849
  endloop
endfacet
facet normal -0.9937122098932439 -0.11196447610329685 -6.974349829137199e-14
  outer loop
    vertex 30.4104993088396 73.60614191577483 -1.5045931167634306e-11
    vertex 30.231044352541705 75.19884870461597 4.499999999984854
    vertex 30.23104435254202 75.19884870461597 -1.507342584083915e-11
  endloop
endfacet
facet normal -0.989613018567526 -0.14375699454868185 -6.945627190203095e-14
  outer loop
    vertex 30.410499308839285 73.60614191577483 4.499999999984849
    vertex 30.64091082927939 72.02000524833123 -1.5048751134116856e-11
    vertex 30.640910829279076 72.02000524833123 4.499999999984839
  endloop
endfacet
facet normal -0.989613018567526 -0.14375699454868185 -6.945627190203095e-14
  outer loop
    vertex 30.64091082927939 72.02000524833123 -1.5048751134116856e-11
    vertex 30.410499308839285 73.60614191577483 4.499999999984849
    vertex 30.4104993088396 73.60614191577483 -1.5045931167634306e-11
  endloop
endfacet
facet normal -0.996790294749717 -0.08005690659007642 -6.996023680028951e-14
  outer loop
    vertex 30.10273036248483 76.79648900096434 4.499999999984839
    vertex 30.23104435254202 75.19884870461597 -1.507342584083915e-11
    vertex 30.231044352541705 75.19884870461597 4.499999999984854
  endloop
endfacet
facet normal -0.996790294749717 -0.08005690659007642 -6.996023680028951e-14
  outer loop
    vertex 30.23104435254202 75.19884870461597 -1.507342584083915e-11
    vertex 30.10273036248483 76.79648900096434 4.499999999984839
    vertex 30.102730362485147 76.79648900096434 -1.5048751134116856e-11
  endloop
endfacet
facet normal -0.9988441101966798 -0.04806707319364237 -7.010528213605675e-14
  outer loop
    vertex 30.025689189967224 78.39742112141717 4.499999999984857
    vertex 30.102730362485147 76.79648900096434 -1.5048751134116856e-11
    vertex 30.10273036248483 76.79648900096434 4.499999999984839
  endloop
endfacet
facet normal -0.9988441101966798 -0.04806707319364237 -7.010528213605675e-14
  outer loop
    vertex 30.102730362485147 76.79648900096434 -1.5048751134116856e-11
    vertex 30.025689189967224 78.39742112141717 4.499999999984857
    vertex 30.02568918996754 78.39742112141717 -1.507342584083915e-11
  endloop
endfacet
facet normal -0.996790294749717 0.08005690659007642 -6.996023680028951e-14
  outer loop
    vertex 30.231044352541705 84.80115129538375 4.499999999984854
    vertex 30.102730362485147 83.20351099903537 -1.5048751134116856e-11
    vertex 30.10273036248483 83.20351099903537 4.499999999984839
  endloop
endfacet
facet normal -0.996790294749717 0.08005690659007642 -6.996023680028951e-14
  outer loop
    vertex 30.102730362485147 83.20351099903537 -1.5048751134116856e-11
    vertex 30.231044352541705 84.80115129538375 4.499999999984854
    vertex 30.23104435254202 84.80115129538375 -1.507342584083915e-11
  endloop
endfacet
facet normal -0.9998715457999313 0.016027847630175437 -7.017696825477473e-14
  outer loop
    vertex 30.025689189967224 81.60257887858255 4.499999999984857
    vertex 30.00000000000193 79.99999999999986 -1.504275870534144e-11
    vertex 30.000000000001613 79.99999999999986 4.499999999984819
  endloop
endfacet
facet normal -0.9998715457999313 0.016027847630175437 -7.017696825477473e-14
  outer loop
    vertex 30.00000000000193 79.99999999999986 -1.504275870534144e-11
    vertex 30.025689189967224 81.60257887858255 4.499999999984857
    vertex 30.02568918996754 81.60257887858255 -1.507342584083915e-11
  endloop
endfacet
facet normal -0.9937122098932439 0.11196447610329682 -6.9743498291372e-14
  outer loop
    vertex 30.410499308839285 86.39385808422489 4.499999999984849
    vertex 30.23104435254202 84.80115129538375 -1.507342584083915e-11
    vertex 30.231044352541705 84.80115129538375 4.499999999984854
  endloop
endfacet
facet normal -0.9937122098932439 0.11196447610329682 -6.9743498291372e-14
  outer loop
    vertex 30.23104435254202 84.80115129538375 -1.507342584083915e-11
    vertex 30.410499308839285 86.39385808422489 4.499999999984849
    vertex 30.4104993088396 86.39385808422489 -1.5045931167634306e-11
  endloop
endfacet
facet normal -0.9844969329687484 0.1754017929644045 -6.909881796888952e-14
  outer loop
    vertex 30.922042150448338 89.55793143506807 4.499999999984865
    vertex 30.64091082927939 87.97999475166849 -1.5048751134116856e-11
    vertex 30.640910829279076 87.97999475166849 4.499999999984839
  endloop
endfacet
facet normal -0.9844969329687484 0.1754017929644045 -6.909881796888952e-14
  outer loop
    vertex 30.64091082927939 87.97999475166849 -1.5048751134116856e-11
    vertex 30.922042150448338 89.55793143506807 4.499999999984865
    vertex 30.922042150448654 89.55793143506807 -1.5057211033564498e-11
  endloop
endfacet
facet normal 2.514619793354825e-15 1.0 -4.507751305072142e-28
  outer loop
    vertex 33.000000022387134 69.90533207951849 1.499850453548521
    vertex 64.40000002238689 69.9053320795184 0.9998504535518404
    vertex 33.000000022387674 69.90533207951849 0.999850453548522
  endloop
endfacet
facet normal 2.514619793354825e-15 1.0 -4.507751305072142e-28
  outer loop
    vertex 64.40000002238689 69.9053320795184 0.9998504535518404
    vertex 33.000000022387134 69.90533207951849 1.499850453548521
    vertex 64.40000002238762 69.9053320795184 1.499850453551838
  endloop
endfacet
facet normal -0.9988441101966798 0.04806707319364203 -7.010461799496931e-14
  outer loop
    vertex 30.10273036248483 83.20351099903537 4.499999999984839
    vertex 30.02568918996754 81.60257887858255 -1.507342584083915e-11
    vertex 30.025689189967224 81.60257887858255 4.499999999984857
  endloop
endfacet
facet normal -0.9988441101966798 0.04806707319364203 -7.010461799496931e-14
  outer loop
    vertex 30.02568918996754 81.60257887858255 -1.507342584083915e-11
    vertex 30.10273036248483 83.20351099903537 4.499999999984839
    vertex 30.102730362485147 83.20351099903537 -1.5048751134116856e-11
  endloop
endfacet
facet normal -0.9896130185675258 0.1437569945486829 -6.945627190203096e-14
  outer loop
    vertex 30.640910829279076 87.97999475166849 4.499999999984839
    vertex 30.4104993088396 86.39385808422489 -1.5045931167634306e-11
    vertex 30.410499308839285 86.39385808422489 4.499999999984849
  endloop
endfacet
facet normal -0.9896130185675258 0.1437569945486829 -6.945627190203096e-14
  outer loop
    vertex 30.4104993088396 86.39385808422489 -1.5045931167634306e-11
    vertex 30.640910829279076 87.97999475166849 4.499999999984839
    vertex 30.64091082927939 87.97999475166849 -1.5048751134116856e-11
  endloop
endfacet
facet normal 2.1553883943041355e-15 -1.0 -3.8637868329189784e-28
  outer loop
    vertex 64.40000002238689 90.10533207951853 0.9998504535518404
    vertex 33.000000022387134 90.10533207951846 1.499850453548521
    vertex 33.000000022387674 90.10533207951846 0.999850453548522
  endloop
endfacet
facet normal 2.1553883943041355e-15 -1.0 -3.8637868329189784e-28
  outer loop
    vertex 33.000000022387134 90.10533207951846 1.499850453548521
    vertex 64.40000002238689 90.10533207951853 0.9998504535518404
    vertex 64.40000002238762 90.10533207951853 1.499850453551838
  endloop
endfacet
facet normal 1.0 -0.0 1.0828671292983947e-12
  outer loop
    vertex 33.000000022387674 90.10533207951846 0.999850453548522
    vertex 33.000000022387134 69.90533207951849 1.499850453548521
    vertex 33.000000022387674 69.90533207951849 0.999850453548522
  endloop
endfacet
facet normal 1.0 -0.0 1.0828671292983947e-12
  outer loop
    vertex 33.000000022387134 69.90533207951849 1.499850453548521
    vertex 33.000000022387674 90.10533207951846 0.999850453548522
    vertex 33.000000022387134 90.10533207951846 1.499850453548521
  endloop
endfacet
facet normal 3.986178140343483e-06 6.198058415068547e-10 0.9999999999920552
  outer loop
    vertex 66.40000002238762 67.90533207951853 1.499850519157452
    vertex 32.78892601866084 68.90533207951853 1.499925226768337
    vertex 32.78892601866084 67.90533207951853 1.4999252267783985
  endloop
endfacet
facet normal 3.986178140343483e-06 6.198058415068547e-10 0.9999999999920552
  outer loop
    vertex 32.78892601866084 68.90533207951853 1.499925226768337
    vertex 66.40000002238762 67.90533207951853 1.499850519157452
    vertex 33.000000022387134 69.90533207951849 1.499850453548521
  endloop
endfacet
facet normal 3.986178140343483e-06 6.198058415068547e-10 0.9999999999920552
  outer loop
    vertex 32.78892601866084 68.90533207951853 1.499925226768337
    vertex 33.000000022387134 69.90533207951849 1.499850453548521
    vertex 32.791568593229535 91.10533207951853 1.499925226768337
  endloop
endfacet
facet normal 3.986178140343483e-06 6.198058415068547e-10 0.9999999999920552
  outer loop
    vertex 32.791568593229535 91.10533207951853 1.499925226768337
    vertex 33.000000022387134 69.90533207951849 1.499850453548521
    vertex 32.791568593229535 92.10533207951853 1.4999252267582752
  endloop
endfacet
facet normal 3.986178140343483e-06 6.198058415068547e-10 0.9999999999920552
  outer loop
    vertex 33.000000022387134 69.90533207951849 1.499850453548521
    vertex 66.40000002238762 67.90533207951853 1.499850519157452
    vertex 64.40000002238762 69.9053320795184 1.499850453551838
  endloop
endfacet
facet normal 3.986178140343483e-06 6.198058415068547e-10 0.9999999999920552
  outer loop
    vertex 64.40000002238762 69.9053320795184 1.499850453551838
    vertex 66.40000002238762 67.90533207951853 1.499850519157452
    vertex 64.40000002238762 90.10533207951853 1.499850453551838
  endloop
endfacet
facet normal 3.986178140343483e-06 6.198058415068547e-10 0.9999999999920552
  outer loop
    vertex 32.791568593229535 92.10533207951853 1.4999252267582752
    vertex 33.000000022387134 90.10533207951846 1.499850453548521
    vertex 66.40000002238762 92.10533207951853 1.4998505191373288
  endloop
endfacet
facet normal 3.986178140343483e-06 6.198058415068547e-10 0.9999999999920552
  outer loop
    vertex 33.000000022387134 90.10533207951846 1.499850453548521
    vertex 32.791568593229535 92.10533207951853 1.4999252267582752
    vertex 33.000000022387134 69.90533207951849 1.499850453548521
  endloop
endfacet
facet normal 3.986178140343483e-06 6.198058415068547e-10 0.9999999999920552
  outer loop
    vertex 66.40000002238762 92.10533207951853 1.4998505191373288
    vertex 33.000000022387134 90.10533207951846 1.499850453548521
    vertex 64.40000002238762 90.10533207951853 1.499850453551838
  endloop
endfacet
facet normal 3.986178140343483e-06 6.198058415068547e-10 0.9999999999920552
  outer loop
    vertex 66.40000002238762 92.10533207951853 1.4998505191373288
    vertex 64.40000002238762 90.10533207951853 1.499850453551838
    vertex 66.40000002238762 67.90533207951853 1.499850519157452
  endloop
endfacet
facet normal 3.986178140343483e-06 6.198058415068547e-10 0.9999999999920552
  outer loop
    vertex 31.52543490129202 78.42947827421204 1.4999999999848368
    vertex 31.52543490129202 81.57052172578753 1.4999999999848368
    vertex 31.499999999999467 79.99999999999976 1.4999999999848375
  endloop
endfacet
facet normal 3.986178140343483e-06 6.198058415068547e-10 0.9999999999920552
  outer loop
    vertex 31.52543490129202 81.57052172578753 1.4999999999848368
    vertex 31.52543490129202 78.42947827421204 1.4999999999848368
    vertex 31.601712927470498 76.86060380883966 1.4999999999848375
  endloop
endfacet
facet normal 3.986178140343483e-06 6.198058415068547e-10 0.9999999999920552
  outer loop
    vertex 31.52543490129202 81.57052172578753 1.4999999999848368
    vertex 31.601712927470498 76.86060380883966 1.4999999999848375
    vertex 31.601712927470498 83.1393961911599 1.4999999999848375
  endloop
endfacet
facet normal 3.986178140343483e-06 6.198058415068547e-10 0.9999999999920552
  outer loop
    vertex 31.601712927470498 83.1393961911599 1.4999999999848375
    vertex 31.601712927470498 76.86060380883966 1.4999999999848375
    vertex 31.72875407341873 75.29502213654936 1.4999999999848368
  endloop
endfacet
facet normal 3.986178140343483e-06 6.198058415068547e-10 0.9999999999920552
  outer loop
    vertex 31.601712927470498 83.1393961911599 1.4999999999848375
    vertex 31.72875407341873 75.29502213654936 1.4999999999848368
    vertex 31.72875407341873 84.70497786345018 1.4999999999848368
  endloop
endfacet
facet normal 3.986178140343483e-06 6.198058415068547e-10 0.9999999999920552
  outer loop
    vertex 31.72875407341873 84.70497786345018 1.4999999999848368
    vertex 31.72875407341873 75.29502213654936 1.4999999999848368
    vertex 31.906425090517875 73.73437533632259 1.4999999999848375
  endloop
endfacet
facet normal 3.986178140343483e-06 6.198058415068547e-10 0.9999999999920552
  outer loop
    vertex 31.72875407341873 84.70497786345018 1.4999999999848368
    vertex 31.906425090517875 73.73437533632259 1.4999999999848375
    vertex 31.906425090517875 86.26562466367697 1.4999999999848375
  endloop
endfacet
facet normal 3.986178140343483e-06 6.198058415068547e-10 0.9999999999920552
  outer loop
    vertex 31.906425090517875 86.26562466367697 1.4999999999848375
    vertex 31.906425090517875 73.73437533632259 1.4999999999848375
    vertex 32.1345396264058 72.18030031114144 1.4999999999848375
  endloop
endfacet
facet normal 3.986178140343483e-06 6.198058415068547e-10 0.9999999999920552
  outer loop
    vertex 31.906425090517875 86.26562466367697 1.4999999999848375
    vertex 32.1345396264058 72.18030031114144 1.4999999999848375
    vertex 32.1345396264058 87.81969968885811 1.4999999999848375
  endloop
endfacet
facet normal 3.986178140343483e-06 6.198058415068547e-10 0.9999999999920552
  outer loop
    vertex 32.1345396264058 87.81969968885811 1.4999999999848375
    vertex 32.1345396264058 72.18030031114144 1.4999999999848375
    vertex 32.4128584204349 70.63442707110353 1.4999999999848368
  endloop
endfacet
facet normal 3.986178140343483e-06 6.198058415068547e-10 0.9999999999920552
  outer loop
    vertex 32.1345396264058 87.81969968885811 1.4999999999848375
    vertex 32.4128584204349 70.63442707110353 1.4999999999848368
    vertex 32.4128584204349 89.36557292889601 1.4999999999848368
  endloop
endfacet
facet normal 3.986178140343483e-06 6.198058415068547e-10 0.9999999999920552
  outer loop
    vertex 32.4128584204349 89.36557292889601 1.4999999999848368
    vertex 32.4128584204349 70.63442707110353 1.4999999999848368
    vertex 32.74108955462362 69.09837702376642 1.4999999999848352
  endloop
endfacet
facet normal 3.986178140343483e-06 6.198058415068547e-10 0.9999999999920552
  outer loop
    vertex 32.4128584204349 89.36557292889601 1.4999999999848368
    vertex 32.74108955462362 69.09837702376642 1.4999999999848352
    vertex 32.74108955462362 90.90162297623313 1.4999999999848352
  endloop
endfacet
facet normal 3.986178140343483e-06 6.198058415068547e-10 0.9999999999920552
  outer loop
    vertex 32.74108955462362 90.90162297623313 1.4999999999848352
    vertex 32.74108955462362 69.09837702376642 1.4999999999848352
    vertex 32.78892601866084 68.90533207951853 1.499925226768337
  endloop
endfacet
facet normal 3.986178140343483e-06 6.198058415068547e-10 0.9999999999920552
  outer loop
    vertex 32.74108955462362 90.90162297623313 1.4999999999848352
    vertex 32.78892601866084 68.90533207951853 1.499925226768337
    vertex 32.791568593229535 91.10533207951853 1.499925226768337
  endloop
endfacet
facet normal 0.9893981312363558 -0.14522857124549196 -2.5296624694865445e-13
  outer loop
    vertex 32.1345396264058 87.81969968885811 1.4999999999848375
    vertex 31.906425090518642 86.26562466367697 4.499999999984837
    vertex 31.906425090517875 86.26562466367697 1.4999999999848375
  endloop
endfacet
facet normal 0.9893981312363558 -0.14522857124549196 -2.5296624694865445e-13
  outer loop
    vertex 31.906425090518642 86.26562466367697 4.499999999984837
    vertex 32.1345396264058 87.81969968885811 1.4999999999848375
    vertex 32.134539626406564 87.81969968885811 4.499999999984837
  endloop
endfacet
facet normal 0.999868883665632 -0.016193068802517585 -2.556434119170793e-13
  outer loop
    vertex 31.52543490129202 81.57052172578753 1.4999999999848368
    vertex 31.500000000000234 79.99999999999976 4.499999999984837
    vertex 31.499999999999467 79.99999999999976 1.4999999999848375
  endloop
endfacet
facet normal 0.999868883665632 -0.016193068802517585 -2.556434119170793e-13
  outer loop
    vertex 31.500000000000234 79.99999999999976 4.499999999984837
    vertex 31.52543490129202 81.57052172578753 1.4999999999848368
    vertex 31.525434901292787 81.57052172578753 4.499999999984837
  endloop
endfacet
facet normal 0.9779225723955658 -0.2089675630312978 -2.5003539594910255e-13
  outer loop
    vertex 32.74108955462362 90.90162297623313 1.4999999999848352
    vertex 32.41285842043567 89.36557292889601 4.499999999984837
    vertex 32.4128584204349 89.36557292889601 1.4999999999848368
  endloop
endfacet
facet normal 0.9779225723955658 -0.2089675630312978 -2.5003539594910255e-13
  outer loop
    vertex 32.41285842043567 89.36557292889601 4.499999999984837
    vertex 32.74108955462362 90.90162297623313 1.4999999999848352
    vertex 32.74108955462439 90.90162297623313 4.499999999984837
  endloop
endfacet
facet normal 0.999868883665632 0.016193068802517932 -2.556434119170793e-13
  outer loop
    vertex 31.499999999999467 79.99999999999976 1.4999999999848375
    vertex 31.525434901292787 78.42947827421204 4.499999999984837
    vertex 31.52543490129202 78.42947827421204 1.4999999999848368
  endloop
endfacet
facet normal 0.999868883665632 0.016193068802517932 -2.556434119170793e-13
  outer loop
    vertex 31.525434901292787 78.42947827421204 4.499999999984837
    vertex 31.499999999999467 79.99999999999976 1.4999999999848375
    vertex 31.500000000000234 79.99999999999976 4.499999999984837
  endloop
endfacet
facet normal 0.9841764844290742 -0.17719099157922333 -2.5163073597577193e-13
  outer loop
    vertex 32.4128584204349 89.36557292889601 1.4999999999848368
    vertex 32.134539626406564 87.81969968885811 4.499999999984837
    vertex 32.1345396264058 87.81969968885811 1.4999999999848375
  endloop
endfacet
facet normal 0.9841764844290742 -0.17719099157922333 -2.5163073597577193e-13
  outer loop
    vertex 32.134539626406564 87.81969968885811 4.499999999984837
    vertex 32.4128584204349 89.36557292889601 1.4999999999848368
    vertex 32.41285842043567 89.36557292889601 4.499999999984837
  endloop
endfacet
facet normal 0.9988201592795903 -0.04856222211445994 -2.5537610388458883e-13
  outer loop
    vertex 31.601712927470498 83.1393961911599 1.4999999999848375
    vertex 31.525434901292787 81.57052172578753 4.499999999984837
    vertex 31.52543490129202 81.57052172578753 1.4999999999848368
  endloop
endfacet
facet normal 0.9988201592795903 -0.04856222211445994 -2.5537610388458883e-13
  outer loop
    vertex 31.525434901292787 81.57052172578753 4.499999999984837
    vertex 31.601712927470498 83.1393961911599 1.4999999999848375
    vertex 31.601712927471265 83.1393961911599 4.499999999984837
  endloop
endfacet
facet normal 0.9967238104745696 -0.08088044036140198 -2.548384728206917e-13
  outer loop
    vertex 31.72875407341873 84.70497786345018 1.4999999999848368
    vertex 31.601712927471265 83.1393961911599 4.499999999984837
    vertex 31.601712927470498 83.1393961911599 1.4999999999848375
  endloop
endfacet
facet normal 0.9967238104745696 -0.08088044036140198 -2.548384728206917e-13
  outer loop
    vertex 31.601712927471265 83.1393961911599 4.499999999984837
    vertex 31.72875407341873 84.70497786345018 1.4999999999848368
    vertex 31.7287540734195 84.70497786345018 4.499999999984837
  endloop
endfacet
facet normal 0.993582036030979 -0.11311382619527376 -2.5403666391410957e-13
  outer loop
    vertex 31.906425090517875 86.26562466367697 1.4999999999848375
    vertex 31.7287540734195 84.70497786345018 4.499999999984837
    vertex 31.72875407341873 84.70497786345018 1.4999999999848368
  endloop
endfacet
facet normal 0.993582036030979 -0.11311382619527376 -2.5403666391410957e-13
  outer loop
    vertex 31.7287540734195 84.70497786345018 4.499999999984837
    vertex 31.906425090517875 86.26562466367697 1.4999999999848375
    vertex 31.906425090518642 86.26562466367697 4.499999999984837
  endloop
endfacet
facet normal 0.9988201592795903 0.04856222211445994 -2.5537610388458883e-13
  outer loop
    vertex 31.52543490129202 78.42947827421204 1.4999999999848368
    vertex 31.601712927471265 76.86060380883966 4.499999999984837
    vertex 31.601712927470498 76.86060380883966 1.4999999999848375
  endloop
endfacet
facet normal 0.9988201592795903 0.04856222211445994 -2.5537610388458883e-13
  outer loop
    vertex 31.601712927471265 76.86060380883966 4.499999999984837
    vertex 31.52543490129202 78.42947827421204 1.4999999999848368
    vertex 31.525434901292787 78.42947827421204 4.499999999984837
  endloop
endfacet
facet normal -1.0 0.0 1.44382283906453e-12
  outer loop
    vertex 64.40000002238762 90.10533207951853 1.499850453551838
    vertex 64.40000002238689 69.9053320795184 0.9998504535518404
    vertex 64.40000002238762 69.9053320795184 1.499850453551838
  endloop
endfacet
facet normal -1.0 0.0 1.44382283906453e-12
  outer loop
    vertex 64.40000002238689 69.9053320795184 0.9998504535518404
    vertex 64.40000002238762 90.10533207951853 1.499850453551838
    vertex 64.40000002238689 90.10533207951853 0.9998504535518404
  endloop
endfacet
facet normal 0.9967238104745696 0.08088044036140143 -2.5483847282069173e-13
  outer loop
    vertex 31.601712927470498 76.86060380883966 1.4999999999848375
    vertex 31.7287540734195 75.29502213654936 4.499999999984837
    vertex 31.72875407341873 75.29502213654936 1.4999999999848368
  endloop
endfacet
facet normal 0.9967238104745696 0.08088044036140143 -2.5483847282069173e-13
  outer loop
    vertex 31.7287540734195 75.29502213654936 4.499999999984837
    vertex 31.601712927470498 76.86060380883966 1.4999999999848375
    vertex 31.601712927471265 76.86060380883966 4.499999999984837
  endloop
endfacet
facet normal 0.9935820360309788 0.11311382619527455 -2.540366639141095e-13
  outer loop
    vertex 31.72875407341873 75.29502213654936 1.4999999999848368
    vertex 31.906425090518642 73.73437533632259 4.499999999984837
    vertex 31.906425090517875 73.73437533632259 1.4999999999848375
  endloop
endfacet
facet normal 0.9935820360309788 0.11311382619527455 -2.540366639141095e-13
  outer loop
    vertex 31.906425090518642 73.73437533632259 4.499999999984837
    vertex 31.72875407341873 75.29502213654936 1.4999999999848368
    vertex 31.7287540734195 75.29502213654936 4.499999999984837
  endloop
endfacet
facet normal -1.0568138720822677e-13 -1.4759509398177815e-30 1.0
  outer loop
    vertex 64.40000002238689 69.9053320795184 0.9998504535518404
    vertex 33.000000022387674 90.10533207951846 0.999850453548522
    vertex 33.000000022387674 69.90533207951849 0.999850453548522
  endloop
endfacet
facet normal -1.0568138720822677e-13 -1.4759509398177815e-30 1.0
  outer loop
    vertex 33.000000022387674 90.10533207951846 0.999850453548522
    vertex 64.40000002238689 69.9053320795184 0.9998504535518404
    vertex 64.40000002238689 90.10533207951853 0.9998504535518404
  endloop
endfacet
facet normal 0.989398131236356 0.1452285712454909 -2.529662469486545e-13
  outer loop
    vertex 31.906425090517875 73.73437533632259 1.4999999999848375
    vertex 32.134539626406564 72.18030031114144 4.499999999984837
    vertex 32.1345396264058 72.18030031114144 1.4999999999848375
  endloop
endfacet
facet normal 0.989398131236356 0.1452285712454909 -2.529662469486545e-13
  outer loop
    vertex 32.134539626406564 72.18030031114144 4.499999999984837
    vertex 31.906425090517875 73.73437533632259 1.4999999999848375
    vertex 31.906425090518642 73.73437533632259 4.499999999984837
  endloop
endfacet
facet normal 0.9841764844290742 0.17719099157922333 -2.5163073597577193e-13
  outer loop
    vertex 32.1345396264058 72.18030031114144 1.4999999999848375
    vertex 32.41285842043567 70.63442707110353 4.499999999984837
    vertex 32.4128584204349 70.63442707110353 1.4999999999848368
  endloop
endfacet
facet normal 0.9841764844290742 0.17719099157922333 -2.5163073597577193e-13
  outer loop
    vertex 32.41285842043567 70.63442707110353 4.499999999984837
    vertex 32.1345396264058 72.18030031114144 1.4999999999848375
    vertex 32.134539626406564 72.18030031114144 4.499999999984837
  endloop
endfacet
facet normal 0.9779225723955658 0.2089675630312978 -2.5003539594910255e-13
  outer loop
    vertex 32.4128584204349 70.63442707110353 1.4999999999848368
    vertex 32.74108955462439 69.09837702376642 4.499999999984837
    vertex 32.74108955462362 69.09837702376642 1.4999999999848352
  endloop
endfacet
facet normal 0.9779225723955658 0.2089675630312978 -2.5003539594910255e-13
  outer loop
    vertex 32.74108955462439 69.09837702376642 4.499999999984837
    vertex 32.4128584204349 70.63442707110353 1.4999999999848368
    vertex 32.41285842043567 70.63442707110353 4.499999999984837
  endloop
endfacet
facet normal -7.916252899464044e-12 2.269171042757326e-12 1.0
  outer loop
    vertex 31.27403804116496 67.87416209101235 4.500000000181276
    vertex 31.525434901292787 78.42947827421204 4.499999999984837
    vertex 31.500000000000234 79.99999999999976 4.499999999984837
  endloop
endfacet
facet normal -7.916252899464044e-12 2.269171042757326e-12 1.0
  outer loop
    vertex 31.525434901292787 78.42947827421204 4.499999999984837
    vertex 31.27403804116496 67.87416209101235 4.500000000181276
    vertex 31.601712927471265 76.86060380883966 4.499999999984837
  endloop
endfacet
facet normal -7.916252899464044e-12 2.269171042757326e-12 1.0
  outer loop
    vertex 31.601712927471265 76.86060380883966 4.499999999984837
    vertex 31.27403804116496 67.87416209101235 4.500000000181276
    vertex 31.7287540734195 75.29502213654936 4.499999999984837
  endloop
endfacet
facet normal -7.916252899464044e-12 2.269171042757326e-12 1.0
  outer loop
    vertex 31.7287540734195 75.29502213654936 4.499999999984837
    vertex 31.27403804116496 67.87416209101235 4.500000000181276
    vertex 31.906425090518642 73.73437533632259 4.499999999984837
  endloop
endfacet
facet normal -7.916252899464044e-12 2.269171042757326e-12 1.0
  outer loop
    vertex 31.906425090518642 73.73437533632259 4.499999999984837
    vertex 31.27403804116496 67.87416209101235 4.500000000181276
    vertex 32.134539626406564 72.18030031114144 4.499999999984837
  endloop
endfacet
facet normal -7.916252899464044e-12 2.269171042757326e-12 1.0
  outer loop
    vertex 32.134539626406564 72.18030031114144 4.499999999984837
    vertex 31.27403804116496 67.87416209101235 4.500000000181276
    vertex 32.80935966891615 67.9055408683464 4.5000000001812746
  endloop
endfacet
facet normal -7.916252899464044e-12 2.269171042757326e-12 1.0
  outer loop
    vertex 32.134539626406564 72.18030031114144 4.499999999984837
    vertex 32.80935966891615 67.9055408683464 4.5000000001812746
    vertex 32.41285842043567 70.63442707110353 4.499999999984837
  endloop
endfacet
facet normal -7.916252899464044e-12 2.269171042757326e-12 1.0
  outer loop
    vertex 32.41285842043567 70.63442707110353 4.499999999984837
    vertex 32.80935966891615 67.9055408683464 4.5000000001812746
    vertex 32.74108955462439 69.09837702376642 4.499999999984837
  endloop
endfacet
facet normal -7.916252899464044e-12 2.269171042757326e-12 1.0
  outer loop
    vertex 32.74108955462439 69.09837702376642 4.499999999984837
    vertex 32.80935966891615 67.9055408683464 4.5000000001812746
    vertex 32.78892601866157 68.90533207951867 4.499999999984837
  endloop
endfacet
facet normal -7.916252899464044e-12 2.269171042757326e-12 1.0
  outer loop
    vertex 30.025689189967224 78.39742112141717 4.499999999984857
    vertex 30.025689189967224 81.60257887858255 4.499999999984857
    vertex 30.000000000001613 79.99999999999986 4.499999999984819
  endloop
endfacet
facet normal -7.916252899464044e-12 2.269171042757326e-12 1.0
  outer loop
    vertex 30.025689189967224 81.60257887858255 4.499999999984857
    vertex 30.025689189967224 78.39742112141717 4.499999999984857
    vertex 30.10273036248483 76.79648900096434 4.499999999984839
  endloop
endfacet
facet normal -7.916252899464044e-12 2.269171042757326e-12 1.0
  outer loop
    vertex 30.025689189967224 81.60257887858255 4.499999999984857
    vertex 30.10273036248483 76.79648900096434 4.499999999984839
    vertex 30.10273036248483 83.20351099903537 4.499999999984839
  endloop
endfacet
facet normal -7.916252899464044e-12 2.269171042757326e-12 1.0
  outer loop
    vertex 30.10273036248483 83.20351099903537 4.499999999984839
    vertex 30.10273036248483 76.79648900096434 4.499999999984839
    vertex 30.231044352541705 75.19884870461597 4.499999999984854
  endloop
endfacet
facet normal -7.916252899464044e-12 2.269171042757326e-12 1.0
  outer loop
    vertex 30.10273036248483 83.20351099903537 4.499999999984839
    vertex 30.231044352541705 75.19884870461597 4.499999999984854
    vertex 30.231044352541705 84.80115129538375 4.499999999984854
  endloop
endfacet
facet normal -7.916252899464044e-12 2.269171042757326e-12 1.0
  outer loop
    vertex 30.231044352541705 84.80115129538375 4.499999999984854
    vertex 30.231044352541705 75.19884870461597 4.499999999984854
    vertex 30.410499308839285 73.60614191577483 4.499999999984849
  endloop
endfacet
facet normal -7.916252899464044e-12 2.269171042757326e-12 1.0
  outer loop
    vertex 30.231044352541705 84.80115129538375 4.499999999984854
    vertex 30.410499308839285 73.60614191577483 4.499999999984849
    vertex 30.410499308839285 86.39385808422489 4.499999999984849
  endloop
endfacet
facet normal -7.916252899464044e-12 2.269171042757326e-12 1.0
  outer loop
    vertex 30.410499308839285 86.39385808422489 4.499999999984849
    vertex 30.410499308839285 73.60614191577483 4.499999999984849
    vertex 30.640910829279076 72.02000524833123 4.499999999984839
  endloop
endfacet
facet normal -7.916252899464044e-12 2.269171042757326e-12 1.0
  outer loop
    vertex 30.410499308839285 86.39385808422489 4.499999999984849
    vertex 30.640910829279076 72.02000524833123 4.499999999984839
    vertex 30.640910829279076 87.97999475166849 4.499999999984839
  endloop
endfacet
facet normal -7.916252899464044e-12 2.269171042757326e-12 1.0
  outer loop
    vertex 30.640910829279076 87.97999475166849 4.499999999984839
    vertex 30.640910829279076 72.02000524833123 4.499999999984839
    vertex 30.92204215044825 70.44206856493165 4.499999999984865
  endloop
endfacet
facet normal -7.916252899464044e-12 2.269171042757326e-12 1.0
  outer loop
    vertex 30.640910829279076 87.97999475166849 4.499999999984839
    vertex 30.92204215044825 70.44206856493165 4.499999999984865
    vertex 30.922042150448338 89.55793143506807 4.499999999984865
  endloop
endfacet
facet normal -7.916252899464044e-12 2.269171042757326e-12 1.0
  outer loop
    vertex 30.922042150448338 89.55793143506807 4.499999999984865
    vertex 30.92204215044825 70.44206856493165 4.499999999984865
    vertex 31.25360439091038 68.8739533021846 4.499999999984839
  endloop
endfacet
facet normal -7.916252899464044e-12 2.269171042757326e-12 1.0
  outer loop
    vertex 30.922042150448338 89.55793143506807 4.499999999984865
    vertex 31.25360439091038 68.8739533021846 4.499999999984839
    vertex 31.25360439091038 91.12604669781511 4.499999999984839
  endloop
endfacet
facet normal -7.916252899464044e-12 2.269171042757326e-12 1.0
  outer loop
    vertex 31.25360439091038 91.12604669781511 4.499999999984839
    vertex 31.25360439091038 68.8739533021846 4.499999999984839
    vertex 31.27403804116496 67.87416209101235 4.500000000181276
  endloop
endfacet
facet normal -7.916252899464044e-12 2.269171042757326e-12 1.0
  outer loop
    vertex 31.25360439091038 91.12604669781511 4.499999999984839
    vertex 31.27403804116496 67.87416209101235 4.500000000181276
    vertex 31.525434901292787 81.57052172578753 4.499999999984837
  endloop
endfacet
facet normal -7.916252899464044e-12 2.269171042757326e-12 1.0
  outer loop
    vertex 31.25360439091038 91.12604669781511 4.499999999984839
    vertex 31.525434901292787 81.57052172578753 4.499999999984837
    vertex 31.601712927471265 83.1393961911599 4.499999999984837
  endloop
endfacet
facet normal -7.916252899464044e-12 2.269171042757326e-12 1.0
  outer loop
    vertex 31.25360439091038 91.12604669781511 4.499999999984839
    vertex 31.601712927471265 83.1393961911599 4.499999999984837
    vertex 31.7287540734195 84.70497786345018 4.499999999984837
  endloop
endfacet
facet normal -7.916252899464044e-12 2.269171042757326e-12 1.0
  outer loop
    vertex 31.25360439091038 91.12604669781511 4.499999999984839
    vertex 31.7287540734195 84.70497786345018 4.499999999984837
    vertex 31.906425090518642 86.26562466367697 4.499999999984837
  endloop
endfacet
facet normal -7.916252899464044e-12 2.269171042757326e-12 1.0
  outer loop
    vertex 31.25360439091038 91.12604669781511 4.499999999984839
    vertex 31.906425090518642 86.26562466367697 4.499999999984837
    vertex 32.134539626406564 87.81969968885811 4.499999999984837
  endloop
endfacet
facet normal -7.916252899464044e-12 2.269171042757326e-12 1.0
  outer loop
    vertex 31.25360439091038 91.12604669781511 4.499999999984839
    vertex 32.134539626406564 87.81969968885811 4.499999999984837
    vertex 32.41285842043567 89.36557292889601 4.499999999984837
  endloop
endfacet
facet normal -7.916252899464044e-12 2.269171042757326e-12 1.0
  outer loop
    vertex 31.25360439091038 91.12604669781511 4.499999999984839
    vertex 32.41285842043567 89.36557292889601 4.499999999984837
    vertex 32.74108955462439 90.90162297623313 4.499999999984837
  endloop
endfacet
facet normal -7.916252899464044e-12 2.269171042757326e-12 1.0
  outer loop
    vertex 31.25360439091038 91.12604669781511 4.499999999984839
    vertex 32.74108955462439 90.90162297623313 4.499999999984837
    vertex 32.791568593229535 91.10533207951543 4.499999999984837
  endloop
endfacet
facet normal -7.916252899464044e-12 2.269171042757326e-12 1.0
  outer loop
    vertex 31.525434901292787 81.57052172578753 4.499999999984837
    vertex 31.27403804116496 67.87416209101235 4.500000000181276
    vertex 31.500000000000234 79.99999999999976 4.499999999984837
  endloop
endfacet
facet normal 0.999999999999998 -1.5314571651557136e-25 6.559555230420863e-08
  outer loop
    vertex 66.40000012078059 92.10533207950344 -0.0001440669005749127
    vertex 66.40000002238762 67.90533207951853 1.499850519157452
    vertex 66.40000012078059 67.90533207950344 -0.00014406688045155925
  endloop
endfacet
facet normal 0.999999999999998 -1.5314571651557136e-25 6.559555230420863e-08
  outer loop
    vertex 66.40000002238762 67.90533207951853 1.499850519157452
    vertex 66.40000012078059 92.10533207950344 -0.0001440669005749127
    vertex 66.40000002238762 92.10533207951853 1.4998505191373288
  endloop
endfacet
facet normal -3.890160829491991e-06 -4.57719671046703e-07 -0.9999999999923286
  outer loop
    vertex 66.40000012078059 92.10533207950344 -0.0001440669005749127
    vertex 32.791568691622516 91.10533207950344 -6.935926956725401e-05
    vertex 32.791568691622516 92.10533207950344 -6.935927962893074e-05
  endloop
endfacet
facet normal -3.890160829491991e-06 -4.57719671046703e-07 -0.9999999999923286
  outer loop
    vertex 30.02568918996754 81.60257887858255 -1.507342584083915e-11
    vertex 30.02568918996754 78.39742112141717 -1.507342584083915e-11
    vertex 30.00000000000193 79.99999999999986 -1.504275870534144e-11
  endloop
endfacet
facet normal -3.890160829491991e-06 -4.57719671046703e-07 -0.9999999999923286
  outer loop
    vertex 30.02568918996754 78.39742112141717 -1.507342584083915e-11
    vertex 30.02568918996754 81.60257887858255 -1.507342584083915e-11
    vertex 30.102730362485147 83.20351099903537 -1.5048751134116856e-11
  endloop
endfacet
facet normal -3.890160829491991e-06 -4.57719671046703e-07 -0.9999999999923286
  outer loop
    vertex 30.02568918996754 78.39742112141717 -1.507342584083915e-11
    vertex 30.102730362485147 83.20351099903537 -1.5048751134116856e-11
    vertex 30.102730362485147 76.79648900096434 -1.5048751134116856e-11
  endloop
endfacet
facet normal -3.890160829491991e-06 -4.57719671046703e-07 -0.9999999999923286
  outer loop
    vertex 30.102730362485147 76.79648900096434 -1.5048751134116856e-11
    vertex 30.102730362485147 83.20351099903537 -1.5048751134116856e-11
    vertex 30.23104435254202 84.80115129538375 -1.507342584083915e-11
  endloop
endfacet
facet normal -3.890160829491991e-06 -4.57719671046703e-07 -0.9999999999923286
  outer loop
    vertex 30.102730362485147 76.79648900096434 -1.5048751134116856e-11
    vertex 30.23104435254202 84.80115129538375 -1.507342584083915e-11
    vertex 30.23104435254202 75.19884870461597 -1.507342584083915e-11
  endloop
endfacet
facet normal -3.890160829491991e-06 -4.57719671046703e-07 -0.9999999999923286
  outer loop
    vertex 30.23104435254202 75.19884870461597 -1.507342584083915e-11
    vertex 30.23104435254202 84.80115129538375 -1.507342584083915e-11
    vertex 30.4104993088396 86.39385808422489 -1.5045931167634306e-11
  endloop
endfacet
facet normal -3.890160829491991e-06 -4.57719671046703e-07 -0.9999999999923286
  outer loop
    vertex 30.23104435254202 75.19884870461597 -1.507342584083915e-11
    vertex 30.4104993088396 86.39385808422489 -1.5045931167634306e-11
    vertex 30.4104993088396 73.60614191577483 -1.5045931167634306e-11
  endloop
endfacet
facet normal -3.890160829491991e-06 -4.57719671046703e-07 -0.9999999999923286
  outer loop
    vertex 30.4104993088396 73.60614191577483 -1.5045931167634306e-11
    vertex 30.4104993088396 86.39385808422489 -1.5045931167634306e-11
    vertex 30.64091082927939 87.97999475166849 -1.5048751134116856e-11
  endloop
endfacet
facet normal -3.890160829491991e-06 -4.57719671046703e-07 -0.9999999999923286
  outer loop
    vertex 30.4104993088396 73.60614191577483 -1.5045931167634306e-11
    vertex 30.64091082927939 87.97999475166849 -1.5048751134116856e-11
    vertex 30.64091082927939 72.02000524833123 -1.5048751134116856e-11
  endloop
endfacet
facet normal -3.890160829491991e-06 -4.57719671046703e-07 -0.9999999999923286
  outer loop
    vertex 30.64091082927939 72.02000524833123 -1.5048751134116856e-11
    vertex 30.64091082927939 87.97999475166849 -1.5048751134116856e-11
    vertex 30.922042150448654 89.55793143506807 -1.5057211033564498e-11
  endloop
endfacet
facet normal -3.890160829491991e-06 -4.57719671046703e-07 -0.9999999999923286
  outer loop
    vertex 30.64091082927939 72.02000524833123 -1.5048751134116856e-11
    vertex 30.922042150448654 89.55793143506807 -1.5057211033564498e-11
    vertex 30.922042150448565 70.44206856493165 -1.5057211033564498e-11
  endloop
endfacet
facet normal -3.890160829491991e-06 -4.57719671046703e-07 -0.9999999999923286
  outer loop
    vertex 30.922042150448565 70.44206856493165 -1.5057211033564498e-11
    vertex 30.922042150448654 89.55793143506807 -1.5057211033564498e-11
    vertex 31.253604390910695 68.8739533021846 -1.5042053713720804e-11
  endloop
endfacet
facet normal -3.890160829491991e-06 -4.57719671046703e-07 -0.9999999999923286
  outer loop
    vertex 31.253604390910695 68.8739533021846 -1.5042053713720804e-11
    vertex 30.922042150448654 89.55793143506807 -1.5057211033564498e-11
    vertex 31.253604390910695 91.12604669781511 -1.5042053713720804e-11
  endloop
endfacet
facet normal -3.890160829491991e-06 -4.57719671046703e-07 -0.9999999999923286
  outer loop
    vertex 31.253604390910695 68.8739533021846 -1.5042053713720804e-11
    vertex 31.253604390910695 91.12604669781511 -1.5042053713720804e-11
    vertex 32.791568691622516 91.10533207950344 -6.935926956725401e-05
  endloop
endfacet
facet normal -3.890160829491991e-06 -4.57719671046703e-07 -0.9999999999923286
  outer loop
    vertex 31.253604390910695 68.8739533021846 -1.5042053713720804e-11
    vertex 32.791568691622516 91.10533207950344 -6.935926956725401e-05
    vertex 31.274038041165277 67.87416209101235 1.8139544600162136e-10
  endloop
endfacet
facet normal -3.890160829491991e-06 -4.57719671046703e-07 -0.9999999999923286
  outer loop
    vertex 31.274038041165277 67.87416209101235 1.8139544600162136e-10
    vertex 32.791568691622516 91.10533207950344 -6.935926956725401e-05
    vertex 32.78892611705381 67.90533207950344 -6.935925950557729e-05
  endloop
endfacet
facet normal -3.890160829491991e-06 -4.57719671046703e-07 -0.9999999999923286
  outer loop
    vertex 32.78892611705381 67.90533207950344 -6.935925950557729e-05
    vertex 32.791568691622516 91.10533207950344 -6.935926956725401e-05
    vertex 66.40000012078059 67.90533207950344 -0.00014406688045155925
  endloop
endfacet
facet normal -3.890160829491991e-06 -4.57719671046703e-07 -0.9999999999923286
  outer loop
    vertex 66.40000012078059 67.90533207950344 -0.00014406688045155925
    vertex 32.791568691622516 91.10533207950344 -6.935926956725401e-05
    vertex 66.40000012078059 92.10533207950344 -0.0001440669005749127
  endloop
endfacet
facet normal 0.9706429546259656 -0.24052495636622792 -2.4843219261468455e-13
  outer loop
    vertex 32.791568593229535 91.10533207951853 1.499925226768337
    vertex 32.74108955462439 90.90162297623313 4.499999999984837
    vertex 32.74108955462362 90.90162297623313 1.4999999999848352
  endloop
endfacet
facet normal 0.9706429546259656 -0.24052495636622792 -2.4843219261468455e-13
  outer loop
    vertex 32.74108955462439 90.90162297623313 4.499999999984837
    vertex 32.791568593229535 91.10533207951853 1.499925226768337
    vertex 32.791568593229535 91.10533207951543 4.499999999984837
  endloop
endfacet
facet normal 0.9706429546259677 0.24052495636621965 -2.481194755462113e-13
  outer loop
    vertex 32.74108955462362 69.09837702376642 1.4999999999848352
    vertex 32.78892601866157 68.90533207951867 4.499999999984837
    vertex 32.78892601866084 68.90533207951853 1.499925226768337
  endloop
endfacet
facet normal 0.9706429546259677 0.24052495636621965 -2.481194755462113e-13
  outer loop
    vertex 32.78892601866157 68.90533207951867 4.499999999984837
    vertex 32.74108955462362 69.09837702376642 1.4999999999848352
    vertex 32.74108955462439 69.09837702376642 4.499999999984837
  endloop
endfacet
facet normal -2.2365933157929703e-17 1.0 -1.0061676725423308e-11
  outer loop
    vertex 32.791568691622516 92.10533207950344 -6.935927962893074e-05
    vertex 66.40000002238762 92.10533207951853 1.4998505191373288
    vertex 66.40000012078059 92.10533207950344 -0.0001440669005749127
  endloop
endfacet
facet normal -2.2365933157929703e-17 1.0 -1.0061676725423308e-11
  outer loop
    vertex 66.40000002238762 92.10533207951853 1.4998505191373288
    vertex 32.791568691622516 92.10533207950344 -6.935927962893074e-05
    vertex 32.791568593229535 92.10533207951853 1.4999252267582752
  endloop
endfacet
facet normal -0.999999999999998 -6.599952249622544e-19 -6.559555606417748e-08
  outer loop
    vertex 32.791568593229535 91.10533207951853 1.499925226768337
    vertex 32.791568691622516 92.10533207950344 -6.935927962893074e-05
    vertex 32.791568691622516 91.10533207950344 -6.935926956725401e-05
  endloop
endfacet
facet normal -0.999999999999998 -6.599952249622544e-19 -6.559555606417748e-08
  outer loop
    vertex 32.791568691622516 92.10533207950344 -6.935927962893074e-05
    vertex 32.791568593229535 91.10533207951853 1.499925226768337
    vertex 32.791568593229535 92.10533207951853 1.4999252267582752
  endloop
endfacet
facet normal 2.236417470036784e-17 -1.0 1.0061676725423308e-11
  outer loop
    vertex 66.40000002238762 67.90533207951853 1.499850519157452
    vertex 32.78892611705381 67.90533207950344 -6.935925950557729e-05
    vertex 66.40000012078059 67.90533207950344 -0.00014406688045155925
  endloop
endfacet
facet normal 2.236417470036784e-17 -1.0 1.0061676725423308e-11
  outer loop
    vertex 32.78892611705381 67.90533207950344 -6.935925950557729e-05
    vertex 66.40000002238762 67.90533207951853 1.499850519157452
    vertex 32.78892601866084 67.90533207951853 1.4999252267783985
  endloop
endfacet
facet normal -0.999999999999998 -6.599993940838001e-19 -6.559555606417748e-08
  outer loop
    vertex 32.78892601866084 67.90533207951853 1.4999252267783985
    vertex 32.78892611705381 68.90533207950344 -6.935926956725401e-05
    vertex 32.78892611705381 67.90533207950344 -6.935925950557729e-05
  endloop
endfacet
facet normal -0.999999999999998 -6.599993940838001e-19 -6.559555606417748e-08
  outer loop
    vertex 32.78892611705381 68.90533207950344 -6.935926956725401e-05
    vertex 32.78892601866084 67.90533207951853 1.4999252267783985
    vertex 32.78892601866084 68.90533207951853 1.499925226768337
  endloop
endfacet
facet normal 0.020520326830946352 -0.9997894355986796 -2.5534779472128407e-05
  outer loop
    vertex 32.78892601866084 67.90533207951853 1.4999252267783985
    vertex 31.274038041165277 67.87416209101235 1.8139544600162136e-10
    vertex 32.78892611705381 67.90533207950344 -6.935925950557729e-05
  endloop
endfacet
facet normal 0.020520326830946352 -0.9997894355986796 -2.5534779472128407e-05
  outer loop
    vertex 31.274038041165277 67.87416209101235 1.8139544600162136e-10
    vertex 32.78892601866084 67.90533207951853 1.4999252267783985
    vertex 31.27403804116496 67.87416209101235 4.500000000181276
  endloop
endfacet
facet normal 0.020520326830946352 -0.9997894355986796 -2.5534779472128407e-05
  outer loop
    vertex 31.27403804116496 67.87416209101235 4.500000000181276
    vertex 32.78892601866084 67.90533207951853 1.4999252267783985
    vertex 32.80935966891615 67.9055408683464 4.5000000001812746
  endloop
endfacet
facet normal -0.9997912111722494 -0.02043365025457941 -7.017117843684443e-14
  outer loop
    vertex 31.25360439091038 68.8739533021846 4.499999999984839
    vertex 31.274038041165277 67.87416209101235 1.8139544600162136e-10
    vertex 31.27403804116496 67.87416209101235 4.500000000181276
  endloop
endfacet
facet normal -0.9997912111722494 -0.02043365025457941 -7.017117843684443e-14
  outer loop
    vertex 31.274038041165277 67.87416209101235 1.8139544600162136e-10
    vertex 31.25360439091038 68.8739533021846 4.499999999984839
    vertex 31.253604390910695 68.8739533021846 -1.5042053713720804e-11
  endloop
endfacet
facet normal 0.999942013282592 0.010216232464064518 -0.003405681517237595
  outer loop
    vertex 32.78892601866084 68.90533207951853 1.499925226768337
    vertex 32.80935966891615 67.9055408683464 4.5000000001812746
    vertex 32.78892601866084 67.90533207951853 1.4999252267783985
  endloop
endfacet
facet normal 0.999942013282592 0.010216232464064518 -0.003405681517237595
  outer loop
    vertex 32.80935966891615 67.9055408683464 4.5000000001812746
    vertex 32.78892601866084 68.90533207951853 1.499925226768337
    vertex 32.78892601866157 68.90533207951867 4.499999999984837
  endloop
endfacet
facet normal -0.9782748214170346 0.20731225656303964 -4.538952965916232e-05
  outer loop
    vertex 31.253604390910695 91.12604669781511 -1.5042053713720804e-11
    vertex 30.922042150448654 89.55793143506807 -1.5057211033564498e-11
    vertex 31.253604390910592 91.11568938866682 1.499850453551838
  endloop
endfacet
facet normal -0.9782748214170346 0.20731225656303964 -4.538952965916232e-05
  outer loop
    vertex 31.25360439091038 91.12604669781511 4.499999999984839
    vertex 30.922042150448654 89.55793143506807 -1.5057211033564498e-11
    vertex 30.922042150448338 89.55793143506807 4.499999999984865
  endloop
endfacet
facet normal -0.9782748214170346 0.20731225656303964 -4.538952965916232e-05
  outer loop
    vertex 30.922042150448654 89.55793143506807 -1.5057211033564498e-11
    vertex 31.25360439091038 91.12604669781511 4.499999999984839
    vertex 31.253604390910592 91.11568938866682 1.499850453551838
  endloop
endfacet
facet normal -0.9782748214170346 0.20731225656303964 -4.538952965916232e-05
  outer loop
    vertex 31.253604390910592 91.11568938866682 1.499850453551838
    vertex 31.25360439091038 91.12604669781511 4.499999999984839
    vertex 31.253584775540332 91.12216306404001 3.375033026880425
  endloop
endfacet
facet normal -0.9999489823826022 0.010100879497514575 6.975224181517745e-05
  outer loop
    vertex 31.263731028968234 92.1181644712651 1.5033114478027456
    vertex 31.253604390910695 91.12604669781511 -1.5042053713720804e-11
    vertex 31.253604390910592 91.11568938866682 1.499850453551838
  endloop
endfacet
facet normal -0.9999489823826022 0.010100879497514575 6.975224181517745e-05
  outer loop
    vertex 31.253604390910695 91.12604669781511 -1.5042053713720804e-11
    vertex 31.263731028968234 92.1181644712651 1.5033114478027456
    vertex 31.263731028968333 92.1285217804134 0.0034609942358651913
  endloop
endfacet
facet normal 0.0013788578280239012 -0.001230406124114029 0.999998292424472
  outer loop
    vertex 32.791568593229535 91.10533207951853 1.499925226768337
    vertex 31.263731028968234 92.1181644712651 1.5033114478027456
    vertex 31.253604390910592 91.11568938866682 1.499850453551838
  endloop
endfacet
facet normal 0.0013788578280239012 -0.001230406124114029 0.999998292424472
  outer loop
    vertex 31.263731028968234 92.1181644712651 1.5033114478027456
    vertex 32.791568593229535 91.10533207951853 1.499925226768337
    vertex 32.75000661855955 92.10693506833555 1.4990958603460223
  endloop
endfacet
facet normal 0.0013788578280239012 -0.001230406124114029 0.999998292424472
  outer loop
    vertex 32.75000661855955 92.10693506833555 1.4990958603460223
    vertex 32.791568593229535 91.10533207951853 1.499925226768337
    vertex 32.791568593229535 92.10533207951853 1.4999252267582752
  endloop
endfacet
facet normal -0.0007392484473945696 0.003493063013843356 -0.9999936259909433
  outer loop
    vertex 31.263731028968333 92.1285217804134 0.0034609942358651913
    vertex 32.791568691622516 91.10533207950344 -6.935926956725401e-05
    vertex 31.253604390910695 91.12604669781511 -1.5042053713720804e-11
  endloop
endfacet
facet normal -0.0007392484473945696 0.003493063013843356 -0.9999936259909433
  outer loop
    vertex 32.791568691622516 91.10533207950344 -6.935926956725401e-05
    vertex 31.263731028968333 92.1285217804134 0.0034609942358651913
    vertex 32.791568691622516 92.10533207950344 -6.935927962893074e-05
  endloop
endfacet
facet normal 0.011129651534113359 0.999934316560821 0.002737411327031565
  outer loop
    vertex 31.263731028968234 92.1181644712651 1.5033114478027456
    vertex 32.75000661855955 92.10693506833555 1.4990958603460223
    vertex 31.263731028968333 92.1285217804134 0.0034609942358651913
  endloop
endfacet
facet normal 0.011129651534113359 0.999934316560821 0.002737411327031565
  outer loop
    vertex 31.263731028968333 92.1285217804134 0.0034609942358651913
    vertex 32.791568593229535 92.10533207951853 1.4999252267582752
    vertex 32.791568691622516 92.10533207950344 -6.935927962893074e-05
  endloop
endfacet
facet normal 0.011129651534113359 0.999934316560821 0.002737411327031565
  outer loop
    vertex 32.791568593229535 92.10533207951853 1.4999252267582752
    vertex 31.263731028968333 92.1285217804134 0.0034609942358651913
    vertex 32.75000661855955 92.10693506833555 1.4990958603460223
  endloop
endfacet
facet normal 0.010517321510731972 0.9999429183324411 -0.0018830892281506374
  outer loop
    vertex 31.263731028968234 92.1181644712651 1.5033114478027456
    vertex 32.791568593229535 92.10533207951853 1.4999252267582752
    vertex 32.75000661855955 92.10693506833555 1.4990958603460223
  endloop
endfacet
facet normal 0.010517321510731972 0.9999429183324411 -0.0018830892281506374
  outer loop
    vertex 32.791568593229535 92.10533207951853 1.4999252267582752
    vertex 31.263731028968234 92.1181644712651 1.5033114478027456
    vertex 32.80183481280502 92.10783992846626 4.498251651887594
  endloop
endfacet
facet normal 0.010517321510731972 0.9999429183324411 -0.0018830892281506374
  outer loop
    vertex 32.80183481280502 92.10783992846626 4.498251651887594
    vertex 31.263731028968234 92.1181644712651 1.5033114478027456
    vertex 31.263850995115813 92.12467091299082 3.3732846787831825
  endloop
endfacet
facet normal 0.010517321510731972 0.9999429183324411 -0.0018830892281506374
  outer loop
    vertex 32.80183481280502 92.10783992846626 4.498251651887594
    vertex 31.263850995115813 92.12467091299082 3.3732846787831825
    vertex 31.26387061048586 92.12855454676594 4.498251651887596
  endloop
endfacet
facet normal -0.999948278370425 0.010170570861051774 -8.507852103542889e-06
  outer loop
    vertex 31.253584775540332 91.12216306404001 3.375033026880425
    vertex 31.263731028968234 92.1181644712651 1.5033114478027456
    vertex 31.253604390910592 91.11568938866682 1.499850453551838
  endloop
endfacet
facet normal -0.999948278370425 0.010170570861051774 -8.507852103542889e-06
  outer loop
    vertex 31.263731028968234 92.1181644712651 1.5033114478027456
    vertex 31.253584775540332 91.12216306404001 3.375033026880425
    vertex 31.263850995115813 92.12467091299082 3.3732846787831825
  endloop
endfacet
facet normal -0.9999475699753604 0.010239969698169583 -1.791514866282354e-05
  outer loop
    vertex 31.25360439091038 91.12604669781511 4.499999999984839
    vertex 31.263850995115813 92.12467091299082 3.3732846787831825
    vertex 31.253584775540332 91.12216306404001 3.375033026880425
  endloop
endfacet
facet normal -0.9999475699753604 0.010239969698169583 -1.791514866282354e-05
  outer loop
    vertex 31.263850995115813 92.12467091299082 3.3732846787831825
    vertex 31.25360439091038 91.12604669781511 4.499999999984839
    vertex 31.26387061048586 92.12855454676594 4.498251651887596
  endloop
endfacet
facet normal 2.3486065845599516e-05 0.0017437313108970636 0.999998479423604
  outer loop
    vertex 32.791568593229535 91.10533207951543 4.499999999984837
    vertex 31.26387061048586 92.12855454676594 4.498251651887596
    vertex 31.25360439091038 91.12604669781511 4.499999999984839
  endloop
endfacet
facet normal 2.3486065845599516e-05 0.0017437313108970636 0.999998479423604
  outer loop
    vertex 31.26387061048586 92.12855454676594 4.498251651887596
    vertex 32.791568593229535 91.10533207951543 4.499999999984837
    vertex 32.80183481280502 92.10783992846626 4.498251651887594
  endloop
endfacet
facet normal 0.9999853582364294 -0.005134514200163736 -0.0017088231882175563
  outer loop
    vertex 32.791568593229535 91.10533207951853 1.499925226768337
    vertex 32.80183481280502 92.10783992846626 4.498251651887594
    vertex 32.791568593229535 91.10533207951543 4.499999999984837
  endloop
endfacet
facet normal 0.9999853582364294 -0.005134514200163736 -0.0017088231882175563
  outer loop
    vertex 32.80183481280502 92.10783992846626 4.498251651887594
    vertex 32.791568593229535 91.10533207951853 1.499925226768337
    vertex 32.791568593229535 92.10533207951853 1.4999252267582752
  endloop
endfacet
endsolid EncoderPlateHolderBack
